<?xml version="1.0" encoding="UTF-8" standalone="no"?>
<svg
   xmlns:sketch="http://www.bohemiancoding.com/sketch/ns"
   xmlns:dc="http://purl.org/dc/elements/1.1/"
   xmlns:cc="http://creativecommons.org/ns#"
   xmlns:rdf="http://www.w3.org/1999/02/22-rdf-syntax-ns#"
   xmlns:svg="http://www.w3.org/2000/svg"
   xmlns="http://www.w3.org/2000/svg"
   xmlns:sodipodi="http://sodipodi.sourceforge.net/DTD/sodipodi-0.dtd"
   xmlns:inkscape="http://www.inkscape.org/namespaces/inkscape"
   width="18"
   height="18"
   viewBox="0 0 18 18"
   version="1.1"
   id="svg2"
   inkscape:version="0.91 r13725"
   sodipodi:docname="platform_settings.svg"
   inkscape:export-filename="C:\Users\IBM_ADMIN\GitHub\IoT\Blockchain-DOCS\iotblockchain_scratch\images\platform_settings.png"
   inkscape:export-xdpi="80"
   inkscape:export-ydpi="80">
  <metadata
     id="metadata18">
    <rdf:RDF>
      <cc:Work
         rdf:about="">
        <dc:format>image/svg+xml</dc:format>
        <dc:type
           rdf:resource="http://purl.org/dc/dcmitype/StillImage" />
        <dc:title>Data Icon</dc:title>
      </cc:Work>
    </rdf:RDF>
  </metadata>
  <sodipodi:namedview
     pagecolor="#ffffff"
     bordercolor="#666666"
     borderopacity="1"
     objecttolerance="10"
     gridtolerance="10"
     guidetolerance="10"
     inkscape:pageopacity="0"
     inkscape:pageshadow="2"
     inkscape:window-width="1920"
     inkscape:window-height="1019"
     id="namedview16"
     showgrid="false"
     fit-margin-top="0"
     fit-margin-left="0"
     fit-margin-right="0"
     fit-margin-bottom="0"
     inkscape:zoom="43.130775"
     inkscape:cx="-1.3394221"
     inkscape:cy="15.752223"
     inkscape:window-x="-9"
     inkscape:window-y="1041"
     inkscape:window-maximized="1"
     inkscape:current-layer="svg2" />
  <!-- Generator: Sketch 3.4.4 (17249) - http://www.bohemiancoding.com/sketch -->
  <title
     id="title4">Data Icon</title>
  <desc
     id="desc6">Created with Sketch.</desc>
  <defs
     id="defs8" />
  <g
     id="Page-1"
     sketch:type="MSPage"
     style="fill:#1e364a;fill-opacity:1;fill-rule:evenodd;stroke:none;stroke-width:1">
    <g
       id="Desktop-Copy"
       sketch:type="MSArtboardGroup"
       transform="translate(-22,-247)"
       style="fill:#1e364a;fill-opacity:1">
      <g
         id="Data-Icon"
         sketch:type="MSLayerGroup"
         transform="translate(22,247)"
         style="fill:#1e364a;fill-opacity:1">
        <path
           d="M 0,0 0,5.5384615 0,6.9230769 0,11.076923 0,12.461539 0,18 18,18 18,12.461539 18,11.076923 18,6.9230769 18,5.5384615 18,0 0,0 0,0 Z m 16.615385,16.615385 -15.2307696,0 0,-4.153846 15.2307696,0 0,4.153846 0,0 z m 0,-5.538462 -15.2307696,0 0,-4.1538461 15.2307696,0 0,4.1538461 0,0 z M 14.538462,2.7692308 c 0.382153,0 0.692307,0.3101538 0.692307,0.6923077 0,0.3821538 -0.310154,0.6923076 -0.692307,0.6923076 -0.382154,0 -0.692308,-0.3101538 -0.692308,-0.6923076 0,-0.3821539 0.310154,-0.6923077 0.692308,-0.6923077 l 0,0 z"
           id="Fill-1"
           sketch:type="MSShapeGroup"
           style="fill:#1e364a;fill-opacity:1"
           inkscape:connector-curvature="0" />
        <path
           d="m 15.027999,8.5104623 c 0.27036,0.2703669 0.27036,0.7087085 0,0.9790754 -0.270367,0.27036 -0.708708,0.27036 -0.979075,0 -0.27036,-0.2703669 -0.27036,-0.7087085 0,-0.9790754 0.270367,-0.27036 0.708708,-0.27036 0.979075,0"
           id="Fill-3"
           sketch:type="MSShapeGroup"
           style="fill:#1e364a;fill-opacity:1"
           inkscape:connector-curvature="0" />
        <path
           d="m 15.027999,14.048926 c 0.27036,0.270363 0.27036,0.708708 0,0.979071 -0.270367,0.270363 -0.708708,0.270363 -0.979075,0 -0.27036,-0.270363 -0.27036,-0.708708 0,-0.979071 0.270367,-0.270363 0.708708,-0.270363 0.979075,0"
           id="Fill-4"
           sketch:type="MSShapeGroup"
           style="fill:#1e364a;fill-opacity:1"
           inkscape:connector-curvature="0" />
      </g>
    </g>
  </g>
</svg>
