<?xml version="1.0" encoding="UTF-8" standalone="no"?>
<svg
   xmlns:dc="http://purl.org/dc/elements/1.1/"
   xmlns:cc="http://creativecommons.org/ns#"
   xmlns:rdf="http://www.w3.org/1999/02/22-rdf-syntax-ns#"
   xmlns:svg="http://www.w3.org/2000/svg"
   xmlns="http://www.w3.org/2000/svg"
   xmlns:sodipodi="http://sodipodi.sourceforge.net/DTD/sodipodi-0.dtd"
   xmlns:inkscape="http://www.inkscape.org/namespaces/inkscape"
   version="1.1"
   x="0px"
   y="0px"
   viewBox="0 0 18 29"
   enable-background="new 0 0 100 100"
   xml:space="preserve"
   id="svg2"
   inkscape:version="0.91 r13725"
   sodipodi:docname="platform_blockchain.svg"
   width="18"
   height="29"
   inkscape:export-filename="C:\Users\IBM_ADMIN\GitHub\IoT\Blockchain-DOCS\iotblockchain_scratch\images\platform_blockchain.png"
   inkscape:export-xdpi="49.655174"
   inkscape:export-ydpi="49.655174"><metadata
     id="metadata12"><rdf:RDF><cc:Work
         rdf:about=""><dc:format>image/svg+xml</dc:format><dc:type
           rdf:resource="http://purl.org/dc/dcmitype/StillImage" /><dc:title /></cc:Work></rdf:RDF></metadata><defs
     id="defs10" /><sodipodi:namedview
     pagecolor="#ffffff"
     bordercolor="#666666"
     borderopacity="1"
     objecttolerance="10"
     gridtolerance="10"
     guidetolerance="10"
     inkscape:pageopacity="0"
     inkscape:pageshadow="2"
     inkscape:window-width="1211"
     inkscape:window-height="985"
     id="namedview8"
     showgrid="false"
     fit-margin-top="0"
     fit-margin-left="0"
     fit-margin-right="0"
     fit-margin-bottom="0"
     inkscape:zoom="18.994773"
     inkscape:cx="7.5575468"
     inkscape:cy="37.5"
     inkscape:window-x="1348"
     inkscape:window-y="21"
     inkscape:window-maximized="0"
     inkscape:current-layer="svg2" /><g
     id="g4"
     style="fill:#1e364a;fill-opacity:1"
     transform="matrix(0.29032258,0,0,0.29,-7.2580645,0)"><path
       d="M 78.288,62 64,47.944 64,41 l -7,0 0,-5 7,0 0,-16 -6.932,0 -5.826,-4 1.758,0 0,-16 -17,0 0,16 1.822,0 -5.759,4 -7.063,0 0,16 16,0 0,-16 -6.118,0 5.759,-4 7.759,0 5.826,4 -6.226,0 0,16 7,0 0,5 -7,0 0,16 7,0 0,5 -7,0 0,16 7,0 0,5 -7,0 0,17 16,0 0,-17 -7,0 0,-5 7,0 0,-16 -7,0 0,-5 7,0 0,-6.757 L 75.988,62 71,62 l 0,16 16,0 0,-16 -8.712,0 z M 40,3 l 9,0 0,10 -9,0 0,-10 z"
       id="path6"
       style="fill:#1e364a;fill-opacity:1"
       inkscape:connector-curvature="0" /></g></svg>