<?xml version="1.0" encoding="utf-8"?>
<!-- Generator: Adobe Illustrator 22.0.1, SVG Export Plug-In . SVG Version: 6.00 Build 0)  -->
<svg version="1.1" id="Layer_1" xmlns="http://www.w3.org/2000/svg" xmlns:xlink="http://www.w3.org/1999/xlink" x="0px" y="0px"
	 width="977.1px" height="347.4px" viewBox="0 0 977.1 347.4" enable-background="new 0 0 977.1 347.4" xml:space="preserve">
<g>
	<defs>
		<path id="SVGID_1_" d="M151.1,183.5c0-2-1.6-3.5-3.6-3.5c-2,0-3.5,1.6-3.5,3.6c0,2,1.6,3.5,3.6,3.5
			C149.5,187,151.1,185.4,151.1,183.5z M155.3,188.5v2.8h-2.8v5c0,0.4-0.3,0.7-0.7,0.7c-0.4,0-0.7-0.3-0.7-0.7v-5h-2.8v5
			c0,0.4-0.3,0.7-0.7,0.7c-0.4,0-0.7-0.3-0.7-0.7v-5h-2.8v5c0,0.4-0.3,0.7-0.7,0.7c-0.4,0-0.7-0.3-0.7-0.7v-5h-2.8v-2.8h-5
			c-0.4,0-0.7-0.3-0.7-0.7c0-0.4,0.3-0.7,0.7-0.7h5v-2.8h-5c-0.4,0-0.7-0.3-0.7-0.7c0-0.4,0.3-0.7,0.7-0.7h5v-2.8h-5
			c-0.4,0-0.7-0.3-0.7-0.7c0-0.4,0.3-0.7,0.7-0.7h5v-2.8h2.8v-5c0-0.4,0.3-0.7,0.7-0.7c0.4,0,0.7,0.3,0.7,0.7v5h2.8v-5
			c0-0.4,0.3-0.7,0.7-0.7c0.4,0,0.7,0.3,0.7,0.7v5h2.8v-5c0-0.4,0.3-0.7,0.7-0.7c0.4,0,0.7,0.3,0.7,0.7v5h2.8v2.8h5
			c0.4,0,0.7,0.3,0.7,0.7c0,0.4-0.3,0.7-0.7,0.7h-5v2.8h5c0.4,0,0.7,0.3,0.7,0.7c0,0.4-0.3,0.7-0.7,0.7h-5v2.8h5
			c0.4,0,0.7,0.3,0.7,0.7c0,0.4-0.3,0.7-0.7,0.7H155.3z"/>
	</defs>
	<clipPath id="SVGID_2_">
		<use xlink:href="#SVGID_1_"  overflow="visible"/>
	</clipPath>
	<rect x="126.9" y="162.9" clip-path="url(#SVGID_2_)" width="41.2" height="41.2"/>
</g>
<g>
	<defs>
		<path id="SVGID_3_" d="M346.5,164c0-2.5-2-4.5-4.5-4.4c-2.5,0-4.5,2-4.4,4.5c0,2.5,2,4.5,4.5,4.4
			C344.5,168.5,346.5,166.4,346.5,164z M351.8,170.3v3.6h-3.6v6.3c0,0.5-0.4,0.9-0.9,0.9c-0.5,0-0.9-0.4-0.9-0.9v-6.3h-3.6v6.3
			c0,0.5-0.4,0.9-0.9,0.9c-0.5,0-0.9-0.4-0.9-0.9v-6.3h-3.6v6.3c0,0.5-0.4,0.9-0.9,0.9c-0.5,0-0.9-0.4-0.9-0.9v-6.3h-3.6v-3.6h-6.3
			c-0.5,0-0.9-0.4-0.9-0.9c0-0.5,0.4-0.9,0.9-0.9h6.3v-3.6h-6.3c-0.5,0-0.9-0.4-0.9-0.9c0-0.5,0.4-0.9,0.9-0.9h6.3v-3.6h-6.3
			c-0.5,0-0.9-0.4-0.9-0.9c0-0.5,0.4-0.9,0.9-0.9h6.3v-3.6h3.6v-6.3c0-0.5,0.4-0.9,0.9-0.9c0.5,0,0.9,0.4,0.9,0.9v6.3h3.6v-6.3
			c0-0.5,0.4-0.9,0.9-0.9c0.5,0,0.9,0.4,0.9,0.9v6.3h3.6v-6.3c0-0.5,0.4-0.9,0.9-0.9c0.5,0,0.9,0.4,0.9,0.9v6.3h3.6v3.6h6.3
			c0.5,0,0.9,0.4,0.9,0.9c0,0.5-0.4,0.9-0.9,0.9h-6.3v3.6h6.3c0.5,0,0.9,0.4,0.9,0.9c0,0.5-0.4,0.9-0.9,0.9h-6.3v3.6h6.3
			c0.5,0,0.9,0.4,0.9,0.9c0,0.5-0.4,0.9-0.9,0.9H351.8z"/>
	</defs>
	<clipPath id="SVGID_4_">
		<use xlink:href="#SVGID_3_"  overflow="visible"/>
	</clipPath>
	<rect x="316.1" y="138.1" clip-path="url(#SVGID_4_)" width="51.9" height="51.9"/>
</g>
<path d="M130,191.9c-2.6,0.7-5.2,1.1-8,1.1c-17.1,0-31-13.9-31-31s13.9-31,31-31s31,13.9,31,31c0,1.4-0.1,2.9-0.3,4.2
	c1.7,0.5,3.3,1.2,4.7,2.1c0.4-2.1,0.6-4.2,0.6-6.3c0-19.9-16.1-36-36-36s-36,16.1-36,36s16.1,36,36,36c3.7,0,7.3-0.6,10.7-1.6
	C131.6,195,130.7,193.6,130,191.9z"/>
<g>
	<path d="M122,143c2.2,0,4,1.8,4,4v20.3v0.9l0.7,0.6c1.5,1.3,2.3,3.2,2.3,5.2c0,3.9-3.1,7-7,7s-7-3.1-7-7c0-2,0.9-3.9,2.3-5.2
		l0.7-0.6v-0.9V147C118,144.8,119.8,143,122,143 M122,141c-3.3,0-6,2.7-6,6v20.3c-1.8,1.6-3,4-3,6.7c0,5,4,9,9,9s9-4,9-9
		c0-2.7-1.2-5-3-6.7V147C128,143.7,125.3,141,122,141L122,141z"/>
	<path d="M124,169.4V160c0-1.1-0.9-2-2-2s-2,0.9-2,2v9.4c-1.8,0.8-3,2.5-3,4.6c0,2.8,2.2,5,5,5s5-2.2,5-5
		C127,172,125.8,170.2,124,169.4z"/>
</g>
<g>
	<defs>
		<path id="SVGID_5_" d="M151.1,290.5c0-2-1.6-3.5-3.6-3.5c-2,0-3.5,1.6-3.5,3.6c0,2,1.6,3.5,3.6,3.5
			C149.5,294,151.1,292.4,151.1,290.5z M155.3,295.5v2.8h-2.8v5c0,0.4-0.3,0.7-0.7,0.7c-0.4,0-0.7-0.3-0.7-0.7v-5h-2.8v5
			c0,0.4-0.3,0.7-0.7,0.7c-0.4,0-0.7-0.3-0.7-0.7v-5h-2.8v5c0,0.4-0.3,0.7-0.7,0.7c-0.4,0-0.7-0.3-0.7-0.7v-5h-2.8v-2.8h-5
			c-0.4,0-0.7-0.3-0.7-0.7c0-0.4,0.3-0.7,0.7-0.7h5v-2.8h-5c-0.4,0-0.7-0.3-0.7-0.7c0-0.4,0.3-0.7,0.7-0.7h5v-2.8h-5
			c-0.4,0-0.7-0.3-0.7-0.7c0-0.4,0.3-0.7,0.7-0.7h5v-2.8h2.8v-5c0-0.4,0.3-0.7,0.7-0.7c0.4,0,0.7,0.3,0.7,0.7v5h2.8v-5
			c0-0.4,0.3-0.7,0.7-0.7c0.4,0,0.7,0.3,0.7,0.7v5h2.8v-5c0-0.4,0.3-0.7,0.7-0.7c0.4,0,0.7,0.3,0.7,0.7v5h2.8v2.8h5
			c0.4,0,0.7,0.3,0.7,0.7c0,0.4-0.3,0.7-0.7,0.7h-5v2.8h5c0.4,0,0.7,0.3,0.7,0.7c0,0.4-0.3,0.7-0.7,0.7h-5v2.8h5
			c0.4,0,0.7,0.3,0.7,0.7c0,0.4-0.3,0.7-0.7,0.7H155.3z"/>
	</defs>
	<clipPath id="SVGID_6_">
		<use xlink:href="#SVGID_5_"  overflow="visible"/>
	</clipPath>
	<rect x="126.9" y="269.9" clip-path="url(#SVGID_6_)" width="41.2" height="41.2"/>
</g>
<path d="M130,298.9c-2.6,0.7-5.2,1.1-8,1.1c-17.1,0-31-13.9-31-31s13.9-31,31-31s31,13.9,31,31c0,1.4-0.1,2.9-0.3,4.2
	c1.7,0.5,3.3,1.2,4.7,2.1c0.4-2.1,0.6-4.2,0.6-6.3c0-19.9-16.1-36-36-36s-36,16.1-36,36s16.1,36,36,36c3.7,0,7.3-0.6,10.7-1.6
	C131.6,302,130.7,300.6,130,298.9z"/>
<path d="M132,273.2c-0.1-0.8-0.2-1.6-0.5-2.4c-2-7.2-9.5-16.9-9.5-16.9s-7.5,9.7-9.5,16.9c-0.2,0.8-0.4,1.5-0.5,2.4
	c0,0.3,0,0.5,0,0.8c0,5.5,4.5,10,10,10s10-4.5,10-10C132,273.8,132,273.5,132,273.2z"/>
<g>
	<path fill="#FFFFFF" d="M117,267c0,0-5,8,0,12c0,0,3,2,6,2C123,281,114,277,117,267z"/>
</g>
<path d="M386,117h-21v42h31.5v-31.5L386,117z M394.4,156.9h-27.3v-37.8h16.8v10.5h10.5V156.9z"/>
<g>
	<path d="M371.7,142.3v-1.1l4.7-2.7v1.2l-3.6,2v0.1l3.6,2v1.2L371.7,142.3z"/>
	<path d="M378.3,146.6l3.7-9.9h1.1l-3.7,9.9H378.3z"/>
	<path d="M384.9,143.8l3.6-2v-0.1l-3.6-2v-1.2l4.7,2.7v1.1l-4.7,2.7V143.8z"/>
</g>
<path d="M382.4,162c1,2.5,1.6,5.2,1.6,8c0,10.9-8.5,20.1-19.3,20.9l-0.9,0.1H310c-11.6,0-21-9.4-21-21s9.4-21,21-21
	c1.2,0,2.4,0.1,3.7,0.3l4,0.7l0.6-4c1.9-12.2,12.3-21,24.7-21c7.6,0,14.4,3.4,19,8.8v-5.7c-5.1-4.4-11.7-7.1-19-7.1
	c-14.4,0-26.4,10.6-28.6,24.4c-1.4-0.3-2.9-0.4-4.4-0.4c-13.8,0-25,11.2-25,25s11.2,25,25,25h55v-0.1c12.9-1,23-11.8,23-24.9
	c0-2.8-0.5-5.5-1.3-8H382.4z"/>
<g>
	<defs>
		<path id="SVGID_7_" d="M346.5,273c0-2.5-2-4.5-4.5-4.4c-2.5,0-4.5,2-4.4,4.5c0,2.5,2,4.5,4.5,4.4
			C344.5,277.5,346.5,275.4,346.5,273z M351.8,279.3v3.6h-3.6v6.3c0,0.5-0.4,0.9-0.9,0.9c-0.5,0-0.9-0.4-0.9-0.9v-6.3h-3.6v6.3
			c0,0.5-0.4,0.9-0.9,0.9c-0.5,0-0.9-0.4-0.9-0.9v-6.3h-3.6v6.3c0,0.5-0.4,0.9-0.9,0.9c-0.5,0-0.9-0.4-0.9-0.9v-6.3h-3.6v-3.6h-6.3
			c-0.5,0-0.9-0.4-0.9-0.9c0-0.5,0.4-0.9,0.9-0.9h6.3v-3.6h-6.3c-0.5,0-0.9-0.4-0.9-0.9c0-0.5,0.4-0.9,0.9-0.9h6.3v-3.6h-6.3
			c-0.5,0-0.9-0.4-0.9-0.9c0-0.5,0.4-0.9,0.9-0.9h6.3v-3.6h3.6v-6.3c0-0.5,0.4-0.9,0.9-0.9c0.5,0,0.9,0.4,0.9,0.9v6.3h3.6v-6.3
			c0-0.5,0.4-0.9,0.9-0.9c0.5,0,0.9,0.4,0.9,0.9v6.3h3.6v-6.3c0-0.5,0.4-0.9,0.9-0.9c0.5,0,0.9,0.4,0.9,0.9v6.3h3.6v3.6h6.3
			c0.5,0,0.9,0.4,0.9,0.9c0,0.5-0.4,0.9-0.9,0.9h-6.3v3.6h6.3c0.5,0,0.9,0.4,0.9,0.9c0,0.5-0.4,0.9-0.9,0.9h-6.3v3.6h6.3
			c0.5,0,0.9,0.4,0.9,0.9c0,0.5-0.4,0.9-0.9,0.9H351.8z"/>
	</defs>
	<clipPath id="SVGID_8_">
		<use xlink:href="#SVGID_7_"  overflow="visible"/>
	</clipPath>
	<rect x="316.1" y="247.1" clip-path="url(#SVGID_8_)" width="51.9" height="51.9"/>
</g>
<path d="M386,226h-21v42h31.5v-31.5L386,226z M394.4,265.9h-27.3v-37.8h16.8v10.5h10.5V265.9z"/>
<g>
	<path d="M371.7,251.3v-1.1l4.7-2.7v1.2l-3.6,2v0.1l3.6,2v1.2L371.7,251.3z"/>
	<path d="M378.3,255.6l3.7-9.9h1.1l-3.7,9.9H378.3z"/>
	<path d="M384.9,252.8l3.6-2v-0.1l-3.6-2v-1.2l4.7,2.7v1.1l-4.7,2.7V252.8z"/>
</g>
<path d="M382.4,271c1,2.5,1.6,5.2,1.6,8c0,10.9-8.5,20.1-19.3,20.9l-0.9,0.1H310c-11.6,0-21-9.4-21-21s9.4-21,21-21
	c1.2,0,2.4,0.1,3.7,0.3l4,0.7l0.6-4c1.9-12.2,12.3-21,24.7-21c7.6,0,14.4,3.4,19,8.8v-5.7c-5.1-4.4-11.7-7.1-19-7.1
	c-14.4,0-26.4,10.6-28.6,24.4c-1.4-0.3-2.9-0.4-4.4-0.4c-13.8,0-25,11.2-25,25s11.2,25,25,25h55v-0.1c12.9-1,23-11.8,23-24.9
	c0-2.8-0.5-5.5-1.3-8H382.4z"/>
<g>
	<defs>
		<path id="SVGID_9_" d="M622.5,215c0-2.5-2-4.5-4.5-4.4c-2.5,0-4.5,2-4.4,4.5c0,2.5,2,4.5,4.5,4.4
			C620.5,219.5,622.5,217.4,622.5,215z M627.8,221.3v3.6h-3.6v6.3c0,0.5-0.4,0.9-0.9,0.9c-0.5,0-0.9-0.4-0.9-0.9v-6.3h-3.6v6.3
			c0,0.5-0.4,0.9-0.9,0.9c-0.5,0-0.9-0.4-0.9-0.9v-6.3h-3.6v6.3c0,0.5-0.4,0.9-0.9,0.9c-0.5,0-0.9-0.4-0.9-0.9v-6.3h-3.6v-3.6h-6.3
			c-0.5,0-0.9-0.4-0.9-0.9c0-0.5,0.4-0.9,0.9-0.9h6.3v-3.6h-6.3c-0.5,0-0.9-0.4-0.9-0.9c0-0.5,0.4-0.9,0.9-0.9h6.3v-3.6h-6.3
			c-0.5,0-0.9-0.4-0.9-0.9c0-0.5,0.4-0.9,0.9-0.9h6.3v-3.6h3.6v-6.3c0-0.5,0.4-0.9,0.9-0.9c0.5,0,0.9,0.4,0.9,0.9v6.3h3.6v-6.3
			c0-0.5,0.4-0.9,0.9-0.9c0.5,0,0.9,0.4,0.9,0.9v6.3h3.6v-6.3c0-0.5,0.4-0.9,0.9-0.9c0.5,0,0.9,0.4,0.9,0.9v6.3h3.6v3.6h6.3
			c0.5,0,0.9,0.4,0.9,0.9c0,0.5-0.4,0.9-0.9,0.9h-6.3v3.6h6.3c0.5,0,0.9,0.4,0.9,0.9c0,0.5-0.4,0.9-0.9,0.9h-6.3v3.6h6.3
			c0.5,0,0.9,0.4,0.9,0.9c0,0.5-0.4,0.9-0.9,0.9H627.8z"/>
	</defs>
	<clipPath id="SVGID_10_">
		<use xlink:href="#SVGID_9_"  overflow="visible"/>
	</clipPath>
	<rect x="592.1" y="189.1" clip-path="url(#SVGID_10_)" width="51.9" height="51.9"/>
</g>
<path d="M662,168h-21v42h31.5v-31.5L662,168z M670.4,207.9h-27.3v-37.8h16.8v10.5h10.5V207.9z"/>
<g>
	<path d="M647.7,193.3v-1.1l4.7-2.7v1.2l-3.6,2v0.1l3.6,2v1.2L647.7,193.3z"/>
	<path d="M654.3,197.6l3.7-9.9h1.1l-3.7,9.9H654.3z"/>
	<path d="M660.9,194.8l3.6-2v-0.1l-3.6-2v-1.2l4.7,2.7v1.1l-4.7,2.7V194.8z"/>
</g>
<path d="M658.4,213c1,2.5,1.6,5.2,1.6,8c0,10.9-8.5,20.1-19.3,20.9l-0.9,0.1H586c-11.6,0-21-9.4-21-21s9.4-21,21-21
	c1.2,0,2.4,0.1,3.7,0.3l4,0.7l0.6-4c1.9-12.2,12.3-21,24.7-21c7.6,0,14.4,3.4,19,8.8v-5.7c-5.1-4.4-11.7-7.1-19-7.1
	c-14.4,0-26.4,10.6-28.6,24.4c-1.4-0.3-2.9-0.4-4.4-0.4c-13.8,0-25,11.2-25,25s11.2,25,25,25h55v-0.1c12.9-1,23-11.8,23-24.9
	c0-2.8-0.5-5.5-1.3-8H658.4z"/>
<g>
	<path d="M708.5,178.6c-0.1,0-0.2,0-0.3-0.1c-0.1-0.1-0.1-0.2-0.1-0.4v-3.7c0-0.4-0.1-0.7-0.2-1c-0.2-0.3-0.4-0.5-0.7-0.6
		c-0.3-0.2-0.6-0.3-0.9-0.4c-0.3-0.1-0.7-0.1-1-0.1c-0.4,0-0.8,0-1.2,0.1c-0.4,0.1-0.7,0.2-1,0.4c-0.3,0.2-0.5,0.4-0.7,0.7
		s-0.3,0.7-0.3,1.1h1.6c0-0.4,0.2-0.7,0.5-0.9s0.7-0.3,1.1-0.3c0.2,0,0.3,0,0.5,0c0.2,0,0.3,0.1,0.5,0.1c0.1,0.1,0.3,0.2,0.4,0.3
		c0.1,0.1,0.1,0.3,0.1,0.5c0,0.2-0.1,0.4-0.2,0.5c-0.1,0.1-0.3,0.2-0.5,0.3c-0.2,0.1-0.5,0.1-0.7,0.1c-0.3,0-0.5,0.1-0.8,0.1
		c-0.3,0-0.7,0.1-1,0.2c-0.3,0.1-0.6,0.2-0.9,0.3c-0.3,0.2-0.5,0.4-0.6,0.7c-0.2,0.3-0.2,0.6-0.2,1.1c0,0.4,0.1,0.7,0.2,0.9
		c0.1,0.3,0.3,0.5,0.5,0.7c0.2,0.2,0.5,0.3,0.8,0.4s0.6,0.1,0.9,0.1c0.4,0,0.9-0.1,1.3-0.2s0.8-0.4,1.2-0.7c0.1,0.3,0.2,0.5,0.4,0.7
		c0.2,0.1,0.5,0.2,0.8,0.2c0.3,0,0.5,0,0.8-0.1c0.1,0,0.2,0,0.2-0.1v-1.1c-0.1,0-0.1,0-0.2,0C708.6,178.6,708.5,178.6,708.5,178.6z
		 M706.5,177.2c0,0.2-0.1,0.5-0.2,0.6c-0.1,0.2-0.3,0.3-0.5,0.4c-0.2,0.1-0.4,0.2-0.6,0.2c-0.3,0.1-0.7,0.1-1,0
		c-0.2,0-0.3-0.1-0.5-0.1c-0.1-0.1-0.3-0.2-0.4-0.3c-0.1-0.1-0.2-0.3-0.2-0.4c0-0.2,0-0.4,0.1-0.5c0.1-0.1,0.2-0.3,0.3-0.3
		c0.1-0.1,0.3-0.2,0.4-0.2c0.2-0.1,0.3-0.1,0.5-0.1c0.3-0.1,0.7-0.1,1.1-0.1c0.4,0,0.6-0.1,0.9-0.3
		C706.5,176.1,706.5,177.2,706.5,177.2z M716.1,173.4c-0.3-0.3-0.6-0.6-1-0.8c-0.5-0.2-1-0.3-1.5-0.3c-0.5,0-0.9,0.1-1.3,0.3
		c-0.4,0.2-0.7,0.5-0.9,0.9h0v-1h-1.5v9.8h1.6v-3.6h0c0.1,0.2,0.3,0.4,0.4,0.5c0.2,0.1,0.4,0.3,0.6,0.4c0.2,0.1,0.4,0.2,0.7,0.2
		c0.2,0,0.5,0.1,0.7,0.1c0.5,0,1-0.1,1.4-0.3s0.7-0.5,1-0.8c0.3-0.3,0.4-0.7,0.6-1.2c0.1-0.5,0.2-0.9,0.2-1.4c0-0.5-0.1-1-0.2-1.5
		C716.6,174.2,716.4,173.8,716.1,173.4z M715.2,177c-0.1,0.3-0.2,0.6-0.3,0.8c-0.2,0.2-0.4,0.4-0.6,0.6c-0.2,0.1-0.6,0.2-0.9,0.2
		c-0.6,0-1.1-0.3-1.5-0.7c-0.2-0.2-0.3-0.5-0.4-0.8c-0.1-0.3-0.1-0.7-0.1-1c0-0.8,0.2-1.4,0.5-1.8c0.3-0.5,0.8-0.7,1.5-0.7
		c0.3,0,0.6,0.1,0.9,0.2c0.2,0.1,0.5,0.3,0.6,0.6s0.3,0.5,0.4,0.8s0.1,0.6,0.1,0.9C715.3,176.4,715.3,176.7,715.2,177z M718.3,169.8
		h1.6v1.5h-1.6V169.8z M718.3,172.5h1.6v7.2h-1.6V172.5z"/>
	<path d="M693,161v36h36v-36H693z M695.8,163.8h30.5v24.9h-30.5V163.8z"/>
</g>
<path d="M892.7,164.2l-2.7-2.7c-1.8,1.8-3.9,3.2-6.2,4.2l-4.4-12.7c2.1-1.4,3.4-3.8,3.4-6.3c0-3.5-2.3-6.5-5.7-7.3v-4.1h-3.8v4.1
	c-3.3,0.9-5.7,3.9-5.7,7.3c0,2.6,1.3,5,3.4,6.3l-12.8,36.7l3.6,1.2l7.1-20.4c2.1,0.5,4.2,0.8,6.3,0.8c2.1,0,4.2-0.3,6.3-0.8
	l7.1,20.4l3.6-1.2l-7.1-20.5C888,168.1,890.5,166.3,892.7,164.2z M875.3,144.8c1,0,1.9,0.8,1.9,1.9c0,1-0.8,1.9-1.9,1.9
	s-1.9-0.8-1.9-1.9C873.4,145.7,874.2,144.8,875.3,144.8z M870.3,167l4.4-12.7c0.2,0,0.4,0.1,0.6,0.1s0.4,0,0.6-0.1l4.4,12.7
	C877,167.8,873.6,167.8,870.3,167z"/>
<g>
	<path d="M890,258.9h-29c-3.6,0-6.7,3-6.7,6.7v8.5h42.3v-8.5C896.7,261.9,893.7,258.9,890,258.9z M875.5,255.9
		c10,0,18.1-8.2,18.1-18.1s-8.2-18.1-18.1-18.1s-18.1,8.2-18.1,18.1S865.5,255.9,875.5,255.9z M875.5,223.5
		c7.9,0,14.2,6.4,14.2,14.2s-6.4,14.2-14.2,14.2s-14.2-6.4-14.2-14.2S867.7,223.5,875.5,223.5z"/>
</g>
<g>
	<path d="M40.4,44.1v10h-1.3v-10h-3.6v-1.2H44v1.2H40.4z"/>
	<path d="M44,50c0-2.6,1.5-4.3,3.7-4.3c2.2,0,3.6,1.7,3.6,4v0.6h-5.9v0.4c0,1.4,0.9,2.5,2.4,2.5c1,0,1.8-0.5,2.3-1.4l0.9,0.7
		c-0.5,1.1-1.7,1.9-3.3,1.9C45.5,54.3,44,52.6,44,50z M45.4,49.2v0.1H50v-0.2c0-1.5-0.9-2.4-2.2-2.4C46.4,46.7,45.4,47.8,45.4,49.2z
		"/>
	<path d="M53.4,54.1v-8.3h1.3v1.3h0.1c0.4-0.8,0.9-1.5,2.2-1.5c1.1,0,2.1,0.5,2.5,1.7h0c0.3-0.9,1.1-1.7,2.5-1.7
		c1.7,0,2.7,1.2,2.7,3.2v5.3h-1.3V49c0-1.5-0.6-2.2-1.8-2.2c-1,0-1.9,0.5-1.9,1.6v5.7h-1.3V49c0-1.5-0.6-2.2-1.8-2.2
		c-1,0-2,0.5-2,1.6v5.7H53.4z"/>
	<path d="M67.4,45.8h1.3v1.3h0.1c0.4-1,1.3-1.5,2.4-1.5c2.1,0,3.4,1.7,3.4,4.3c0,2.6-1.3,4.3-3.4,4.3c-1.1,0-1.9-0.5-2.4-1.5h-0.1
		v4.5h-1.3V45.8z M73.2,50.7v-1.4c0-1.5-0.9-2.5-2.3-2.5c-1.2,0-2.1,0.7-2.1,1.6v3.1c0,1.1,1,1.7,2.1,1.7
		C72.3,53.1,73.2,52.2,73.2,50.7z"/>
	<path d="M76.1,50c0-2.6,1.5-4.3,3.7-4.3c2.2,0,3.6,1.7,3.6,4v0.6h-5.9v0.4c0,1.4,0.9,2.5,2.4,2.5c1,0,1.8-0.5,2.3-1.4l0.9,0.7
		c-0.5,1.1-1.7,1.9-3.3,1.9C77.6,54.3,76.1,52.6,76.1,50z M77.4,49.2v0.1H82v-0.2c0-1.5-0.9-2.4-2.2-2.4
		C78.4,46.7,77.4,47.8,77.4,49.2z"/>
	<path d="M85.5,54.1v-8.3h1.3v1.5h0.1c0.3-0.8,1-1.5,2.4-1.5h0.5v1.3H89c-1.4,0-2.2,0.6-2.2,1.4v5.6H85.5z"/>
	<path d="M97.3,54.1c-0.9,0-1.3-0.6-1.4-1.3h-0.1c-0.4,1-1.2,1.5-2.4,1.5c-1.7,0-2.8-1-2.8-2.5c0-1.6,1.1-2.4,3.5-2.4h1.6v-0.8
		c0-1.2-0.6-1.8-2-1.8c-1,0-1.6,0.5-2.1,1.2L91,47.3c0.4-0.9,1.4-1.6,2.9-1.6c2,0,3.2,1,3.2,2.8V53H98v1.1H97.3z M95.8,51.7v-1.4
		h-1.7c-1.5,0-2.1,0.4-2.1,1.2v0.3c0,0.8,0.6,1.3,1.6,1.3C94.9,53.2,95.8,52.6,95.8,51.7z"/>
	<path d="M101.6,54.1c-0.9,0-1.4-0.6-1.4-1.4V47h-1.4v-1.1h0.8c0.5,0,0.7-0.2,0.7-0.8v-1.5h1.2v2.3h1.8V47h-1.8v6h1.7v1.1H101.6z"/>
	<path d="M110.5,52.8L110.5,52.8c-0.4,0.8-1,1.5-2.4,1.5c-1.7,0-2.8-1.2-2.8-3.2v-5.3h1.3v5.1c0,1.5,0.7,2.2,1.9,2.2
		c1,0,2-0.5,2-1.6v-5.7h1.3v8.3h-1.3V52.8z"/>
	<path d="M114.5,54.1v-8.3h1.3v1.5h0.1c0.3-0.8,1-1.5,2.4-1.5h0.5v1.3H118c-1.4,0-2.2,0.6-2.2,1.4v5.6H114.5z"/>
	<path d="M119.7,50c0-2.6,1.5-4.3,3.7-4.3c2.2,0,3.6,1.7,3.6,4v0.6h-5.9v0.4c0,1.4,0.9,2.5,2.4,2.5c1,0,1.8-0.5,2.3-1.4l0.9,0.7
		c-0.5,1.1-1.7,1.9-3.3,1.9C121.2,54.3,119.7,52.6,119.7,50z M121.1,49.2v0.1h4.6v-0.2c0-1.5-0.9-2.4-2.2-2.4
		C122,46.7,121.1,47.8,121.1,49.2z"/>
	<path d="M139.3,52.8c-0.4,0.6-1.4,1.5-3.2,1.5c-2.2,0-3.4-1.4-3.4-3.1c0-1.7,1.1-2.5,2.3-3.2c-0.8-0.8-1.3-1.6-1.3-2.6
		c0-1.5,1.2-2.7,2.9-2.7c1.6,0,2.7,1,2.7,2.4c0,1.5-1.2,2.3-2.6,3.1l2.5,2.7c0.3-0.8,0.5-1.8,0.5-2.7h2.2v1.1h-1.1
		c-0.1,0.9-0.4,1.8-0.8,2.5l2.2,2.3h-1.7L139.3,52.8z M138.6,52l-3-3.2c-0.9,0.5-1.6,1-1.6,2.2v0.2c0,1.2,0.9,1.9,2.2,1.9
		C137.3,53.2,138.1,52.7,138.6,52z M135,45.3v0.2c0,0.6,0.4,1.3,1.1,2c1-0.5,2-1.3,2-2.1v-0.2c0-0.9-0.7-1.4-1.5-1.4
		C135.6,43.8,135,44.5,135,45.3z"/>
	<path d="M154.9,48.8h-5.7v5.3h-1.3V42.9h1.3v4.7h5.7v-4.7h1.3v11.2h-1.3V48.8z"/>
	<path d="M164.2,52.8L164.2,52.8c-0.4,0.8-1,1.5-2.4,1.5c-1.7,0-2.8-1.2-2.8-3.2v-5.3h1.3v5.1c0,1.5,0.7,2.2,1.9,2.2
		c1,0,2-0.5,2-1.6v-5.7h1.3v8.3h-1.3V52.8z"/>
	<path d="M168.2,54.1v-8.3h1.3v1.3h0.1c0.4-0.8,0.9-1.5,2.2-1.5c1.1,0,2.1,0.5,2.5,1.7h0c0.3-0.9,1.1-1.7,2.5-1.7
		c1.7,0,2.7,1.2,2.7,3.2v5.3h-1.3V49c0-1.5-0.6-2.2-1.8-2.2c-1,0-1.9,0.5-1.9,1.6v5.7h-1.3V49c0-1.5-0.6-2.2-1.8-2.2
		c-1,0-2,0.5-2,1.6v5.7H168.2z"/>
	<path d="M182,43.2V43c0-0.4,0.2-0.7,0.8-0.7c0.5,0,0.8,0.3,0.8,0.7v0.2c0,0.4-0.2,0.7-0.8,0.7C182.2,43.9,182,43.6,182,43.2z
		 M182.1,45.8h1.3v8.3h-1.3V45.8z"/>
	<path d="M191.4,52.8L191.4,52.8c-0.6,1-1.3,1.5-2.5,1.5c-2.1,0-3.4-1.7-3.4-4.3c0-2.6,1.3-4.3,3.4-4.3c1.1,0,2,0.5,2.4,1.5h0.1
		v-4.9h1.3v11.8h-1.3V52.8z M191.4,51.5v-3.1c0-0.9-1-1.6-2.1-1.6c-1.4,0-2.3,1-2.3,2.5v1.4c0,1.5,0.9,2.5,2.3,2.5
		C190.4,53.1,191.4,52.5,191.4,51.5z"/>
	<path d="M195.3,43.2V43c0-0.4,0.2-0.7,0.8-0.7c0.5,0,0.8,0.3,0.8,0.7v0.2c0,0.4-0.2,0.7-0.8,0.7C195.5,43.9,195.3,43.6,195.3,43.2z
		 M195.4,45.8h1.3v8.3h-1.3V45.8z"/>
	<path d="M201.2,54.1c-0.9,0-1.4-0.6-1.4-1.4V47h-1.4v-1.1h0.8c0.5,0,0.7-0.2,0.7-0.8v-1.5h1.2v2.3h1.8V47h-1.8v6h1.7v1.1H201.2z"/>
	<path d="M210.1,45.8h1.3L207.7,56c-0.4,1-0.7,1.3-1.9,1.3h-0.7v-1.1h1.3l0.6-1.8l-3.1-8.6h1.3l2,5.6l0.4,1.3h0.1l0.4-1.3
		L210.1,45.8z"/>
	<path d="M69.4,71.5l1-0.8c0.8,1,1.7,1.6,3,1.6c1.6,0,2.5-0.8,2.5-2.1c0-1.1-0.6-1.6-2.1-1.9l-0.9-0.2c-2-0.5-3.2-1.4-3.2-3.1
		c0-2,1.5-3.1,3.7-3.1c1.7,0,2.9,0.6,3.7,1.8l-1,0.7c-0.6-0.8-1.5-1.4-2.8-1.4c-1.4,0-2.3,0.6-2.3,1.8c0,1.1,0.7,1.5,2.1,1.9
		l0.9,0.2c2.2,0.5,3.1,1.5,3.1,3.1c0,2-1.4,3.4-3.8,3.4C71.6,73.5,70.3,72.8,69.4,71.5z"/>
	<path d="M78.8,69.2c0-2.6,1.5-4.3,3.7-4.3c2.2,0,3.6,1.7,3.6,4v0.6h-5.9v0.4c0,1.4,0.9,2.5,2.4,2.5c1,0,1.8-0.5,2.3-1.4l0.9,0.7
		c-0.5,1.1-1.7,1.9-3.3,1.9C80.3,73.5,78.8,71.8,78.8,69.2z M80.1,68.4v0.1h4.6v-0.2c0-1.5-0.9-2.4-2.2-2.4
		C81.1,65.9,80.1,67,80.1,68.4z"/>
	<path d="M88.2,73.3V65h1.3v1.3h0.1c0.4-0.9,1.1-1.5,2.3-1.5c1.7,0,2.8,1.2,2.8,3.2v5.3h-1.3v-5.1c0-1.5-0.6-2.2-1.9-2.2
		c-1,0-2,0.5-2,1.6v5.7H88.2z"/>
	<path d="M96.5,71.9l0.9-0.7c0.6,0.8,1.4,1.3,2.4,1.3c1.1,0,1.7-0.5,1.7-1.3c0-0.6-0.4-1.1-1.4-1.3l-0.7-0.1
		c-1.5-0.2-2.7-0.8-2.7-2.4c0-1.6,1.3-2.4,2.9-2.4c1.3,0,2.2,0.5,2.9,1.3l-0.8,0.8c-0.4-0.5-1.1-1-2.1-1c-1.1,0-1.6,0.5-1.6,1.3
		c0,0.8,0.6,1.1,1.6,1.3l0.6,0.1c1.8,0.3,2.5,1.1,2.5,2.3c0,1.6-1.2,2.6-3.1,2.6C98.2,73.5,97.2,72.9,96.5,71.9z"/>
	<path d="M104.4,69.2c0-2.6,1.5-4.3,3.7-4.3s3.7,1.7,3.7,4.3s-1.5,4.3-3.7,4.3S104.4,71.8,104.4,69.2z M110.5,69.8v-1.2
		c0-1.7-1-2.6-2.4-2.6s-2.4,0.8-2.4,2.6v1.2c0,1.7,1,2.6,2.4,2.6S110.5,71.5,110.5,69.8z"/>
	<path d="M114,73.3V65h1.3v1.5h0.1c0.3-0.8,1-1.5,2.4-1.5h0.5v1.3h-0.8c-1.4,0-2.2,0.6-2.2,1.4v5.6H114z"/>
	<path d="M123.8,62.1h3.7c2.8,0,4.6,1.9,4.6,5.6s-1.8,5.6-4.6,5.6h-3.7V62.1z M127.5,72.1c1.8,0,3.1-1.3,3.1-3.5v-1.8
		c0-2.2-1.3-3.5-3.1-3.5h-2.4v8.8H127.5z"/>
	<path d="M133.8,69.2c0-2.6,1.5-4.3,3.7-4.3c2.2,0,3.6,1.7,3.6,4v0.6h-5.9v0.4c0,1.4,0.9,2.5,2.4,2.5c1,0,1.8-0.5,2.3-1.4l0.9,0.7
		c-0.5,1.1-1.7,1.9-3.3,1.9C135.3,73.5,133.8,71.8,133.8,69.2z M135.1,68.4v0.1h4.6v-0.2c0-1.5-0.9-2.4-2.2-2.4
		C136.1,65.9,135.1,67,135.1,68.4z"/>
	<path d="M144.9,73.3L142,65h1.3l1.4,4.1l0.9,2.8h0.1l0.9-2.8L148,65h1.2l-2.9,8.3H144.9z"/>
	<path d="M150.8,62.4v-0.2c0-0.4,0.2-0.7,0.8-0.7c0.5,0,0.8,0.3,0.8,0.7v0.2c0,0.4-0.2,0.7-0.8,0.7C151,63.1,150.8,62.8,150.8,62.4z
		 M150.9,65h1.3v8.3h-1.3V65z"/>
	<path d="M154.3,69.2c0-2.6,1.4-4.3,3.7-4.3c1.6,0,2.6,0.8,3.1,1.9l-1.1,0.5c-0.3-0.8-1-1.3-2-1.3c-1.5,0-2.3,1-2.3,2.5v1.4
		c0,1.4,0.8,2.5,2.3,2.5c1,0,1.8-0.5,2.2-1.4l0.9,0.6c-0.5,1.2-1.6,2-3.2,2C155.7,73.5,154.3,71.8,154.3,69.2z"/>
	<path d="M162.3,69.2c0-2.6,1.5-4.3,3.7-4.3c2.2,0,3.6,1.7,3.6,4v0.6h-5.9v0.4c0,1.4,0.9,2.5,2.4,2.5c1,0,1.8-0.5,2.3-1.4l0.9,0.7
		c-0.5,1.1-1.7,1.9-3.3,1.9C163.7,73.5,162.3,71.8,162.3,69.2z M163.6,68.4v0.1h4.6v-0.2c0-1.5-0.9-2.4-2.2-2.4
		C164.6,65.9,163.6,67,163.6,68.4z"/>
	<path d="M170.9,71.9l0.9-0.7c0.6,0.8,1.4,1.3,2.4,1.3c1.1,0,1.7-0.5,1.7-1.3c0-0.6-0.4-1.1-1.4-1.3l-0.7-0.1
		c-1.5-0.2-2.7-0.8-2.7-2.4c0-1.6,1.3-2.4,2.9-2.4c1.3,0,2.2,0.5,2.9,1.3l-0.8,0.8c-0.4-0.5-1.1-1-2.1-1c-1.1,0-1.6,0.5-1.6,1.3
		c0,0.8,0.6,1.1,1.6,1.3l0.6,0.1c1.8,0.3,2.5,1.1,2.5,2.3c0,1.6-1.2,2.6-3.1,2.6C172.6,73.5,171.6,72.9,170.9,71.9z"/>
</g>
<g>
	<path d="M276,44.5l-2.7-11.2h1.4l1.2,5.4l0.9,4.2h0l1-4.2l1.4-5.4h1.5l1.4,5.4l1,4.2h0l1-4.2l1.3-5.4h1.4L284,44.5h-1.5l-1.5-5.6
		l-1-4.1h0l-1.1,4.1l-1.5,5.6H276z"/>
	<path d="M294.4,44.5c-0.9,0-1.3-0.6-1.4-1.3h-0.1c-0.4,1-1.2,1.5-2.4,1.5c-1.7,0-2.8-1-2.8-2.5c0-1.6,1.1-2.4,3.5-2.4h1.6V39
		c0-1.2-0.6-1.8-2-1.8c-1,0-1.6,0.5-2.1,1.2l-0.8-0.7c0.4-0.9,1.4-1.6,2.9-1.6c2,0,3.2,1,3.2,2.8v4.5h0.9v1.1H294.4z M292.9,42.1
		v-1.4h-1.7c-1.5,0-2.1,0.4-2.1,1.2v0.3c0,0.8,0.6,1.3,1.6,1.3C292,43.6,292.9,43,292.9,42.1z"/>
	<path d="M298.8,44.5c-0.9,0-1.4-0.6-1.4-1.4v-5.8h-1.4v-1.1h0.8c0.5,0,0.7-0.2,0.7-0.8V34h1.2v2.3h1.8v1.1h-1.8v6h1.7v1.1H298.8z"
		/>
	<path d="M301.8,43.1l0.9-0.7c0.6,0.8,1.4,1.3,2.4,1.3c1.1,0,1.7-0.5,1.7-1.3c0-0.6-0.4-1.1-1.4-1.3l-0.7-0.1
		c-1.5-0.2-2.7-0.8-2.7-2.4c0-1.6,1.3-2.4,2.9-2.4c1.3,0,2.2,0.5,2.9,1.3l-0.8,0.8c-0.4-0.5-1.1-1-2.1-1c-1.1,0-1.6,0.5-1.6,1.3
		c0,0.8,0.6,1.1,1.6,1.3l0.6,0.1c1.8,0.3,2.5,1.1,2.5,2.3c0,1.6-1.2,2.6-3.1,2.6C303.5,44.7,302.5,44.1,301.8,43.1z"/>
	<path d="M309.8,40.4c0-2.6,1.5-4.3,3.7-4.3s3.7,1.7,3.7,4.3s-1.5,4.3-3.7,4.3S309.8,43,309.8,40.4z M315.8,41v-1.2
		c0-1.7-1-2.6-2.4-2.6s-2.4,0.8-2.4,2.6V41c0,1.7,1,2.6,2.4,2.6S315.8,42.7,315.8,41z"/>
	<path d="M319.3,44.5v-8.3h1.3v1.3h0.1c0.4-0.9,1.1-1.5,2.3-1.5c1.7,0,2.8,1.2,2.8,3.2v5.3h-1.3v-5.1c0-1.5-0.6-2.2-1.9-2.2
		c-1,0-2,0.5-2,1.6v5.7H319.3z"/>
	<path d="M331.8,44.5v-1.1h1.6v-8.9h-1.6v-1.1h4.5v1.1h-1.6v8.9h1.6v1.1H331.8z"/>
	<path d="M337.9,40.4c0-2.6,1.5-4.3,3.7-4.3s3.7,1.7,3.7,4.3s-1.5,4.3-3.7,4.3S337.9,43,337.9,40.4z M344,41v-1.2
		c0-1.7-1-2.6-2.4-2.6s-2.4,0.8-2.4,2.6V41c0,1.7,1,2.6,2.4,2.6S344,42.7,344,41z"/>
	<path d="M350.2,34.5v10h-1.3v-10h-3.6v-1.2h8.5v1.2H350.2z"/>
	<path d="M359.4,44.5V33.3h4.4c2,0,3.1,1.2,3.1,3.2c0,2-1.1,3.2-3.1,3.2h-3.1v4.8H359.4z M360.7,38.6h3.1c1.1,0,1.7-0.6,1.7-1.6
		v-0.8c0-1-0.6-1.6-1.7-1.6h-3.1V38.6z"/>
	<path d="M370.3,44.5c-0.9,0-1.4-0.6-1.4-1.3V32.7h1.3v10.7h1.2v1.1H370.3z"/>
	<path d="M379.3,44.5c-0.9,0-1.3-0.6-1.4-1.3h-0.1c-0.4,1-1.2,1.5-2.4,1.5c-1.7,0-2.8-1-2.8-2.5c0-1.6,1.1-2.4,3.5-2.4h1.6V39
		c0-1.2-0.6-1.8-2-1.8c-1,0-1.6,0.5-2.1,1.2l-0.8-0.7c0.4-0.9,1.4-1.6,2.9-1.6c2,0,3.2,1,3.2,2.8v4.5h0.9v1.1H379.3z M377.8,42.1
		v-1.4h-1.7c-1.5,0-2.1,0.4-2.1,1.2v0.3c0,0.8,0.6,1.3,1.6,1.3C376.9,43.6,377.8,43,377.8,42.1z"/>
	<path d="M383.7,44.5c-0.9,0-1.4-0.6-1.4-1.4v-5.8H381v-1.1h0.8c0.5,0,0.7-0.2,0.7-0.8V34h1.2v2.3h1.8v1.1h-1.8v6h1.7v1.1H383.7z"/>
	<path d="M387.8,37.4h-1.3v-1.1h1.3v-1.7c0-1.1,0.6-1.9,1.8-1.9h1.2v1.1H389v2.5h1.8v1.1H389v7.1h-1.3V37.4z"/>
	<path d="M391.8,40.4c0-2.6,1.5-4.3,3.7-4.3s3.7,1.7,3.7,4.3s-1.5,4.3-3.7,4.3S391.8,43,391.8,40.4z M397.9,41v-1.2
		c0-1.7-1-2.6-2.4-2.6s-2.4,0.8-2.4,2.6V41c0,1.7,1,2.6,2.4,2.6S397.9,42.7,397.9,41z"/>
	<path d="M401.4,44.5v-8.3h1.3v1.5h0.1c0.3-0.8,1-1.5,2.4-1.5h0.5v1.3h-0.8c-1.4,0-2.2,0.6-2.2,1.4v5.6H401.4z"/>
	<path d="M407.3,44.5v-8.3h1.3v1.3h0.1c0.4-0.8,0.9-1.5,2.2-1.5c1.1,0,2.1,0.5,2.5,1.7h0c0.3-0.9,1.1-1.7,2.5-1.7
		c1.7,0,2.7,1.2,2.7,3.2v5.3h-1.3v-5.1c0-1.5-0.6-2.2-1.8-2.2c-1,0-1.9,0.5-1.9,1.6v5.7h-1.3v-5.1c0-1.5-0.6-2.2-1.8-2.2
		c-1,0-2,0.5-2,1.6v5.7H407.3z"/>
	<path d="M255.7,52.5h3.7c2.8,0,4.6,1.9,4.6,5.6s-1.8,5.6-4.6,5.6h-3.7V52.5z M259.5,62.5c1.8,0,3.1-1.3,3.1-3.5v-1.8
		c0-2.2-1.3-3.5-3.1-3.5h-2.4v8.8H259.5z"/>
	<path d="M265.7,59.6c0-2.6,1.5-4.3,3.7-4.3c2.2,0,3.6,1.7,3.6,4v0.6h-5.9v0.4c0,1.4,0.9,2.5,2.4,2.5c1,0,1.8-0.5,2.3-1.4l0.9,0.7
		c-0.5,1.1-1.7,1.9-3.3,1.9C267.2,63.9,265.7,62.2,265.7,59.6z M267.1,58.8v0.1h4.6v-0.2c0-1.5-0.9-2.4-2.2-2.4
		C268,56.3,267.1,57.4,267.1,58.8z"/>
	<path d="M276.8,63.7l-2.9-8.3h1.3l1.4,4.1l0.9,2.8h0.1l0.9-2.8l1.5-4.1h1.2l-2.9,8.3H276.8z"/>
	<path d="M282.7,52.8v-0.2c0-0.4,0.2-0.7,0.8-0.7c0.5,0,0.8,0.3,0.8,0.7v0.2c0,0.4-0.2,0.7-0.8,0.7
		C282.9,53.5,282.7,53.2,282.7,52.8z M282.8,55.4h1.3v8.3h-1.3V55.4z"/>
	<path d="M286.2,59.6c0-2.6,1.4-4.3,3.7-4.3c1.6,0,2.6,0.8,3.1,1.9l-1.1,0.5c-0.3-0.8-1-1.3-2-1.3c-1.5,0-2.3,1-2.3,2.5v1.4
		c0,1.4,0.8,2.5,2.3,2.5c1,0,1.8-0.5,2.2-1.4l0.9,0.6c-0.5,1.2-1.6,2-3.2,2C287.6,63.9,286.2,62.2,286.2,59.6z"/>
	<path d="M294.2,59.6c0-2.6,1.5-4.3,3.7-4.3c2.2,0,3.6,1.7,3.6,4v0.6h-5.9v0.4c0,1.4,0.9,2.5,2.4,2.5c1,0,1.8-0.5,2.3-1.4l0.9,0.7
		c-0.5,1.1-1.7,1.9-3.3,1.9C295.7,63.9,294.2,62.2,294.2,59.6z M295.5,58.8v0.1h4.6v-0.2c0-1.5-0.9-2.4-2.2-2.4
		C296.5,56.3,295.5,57.4,295.5,58.8z"/>
	<path d="M302.8,62.3l0.9-0.7c0.6,0.8,1.4,1.3,2.4,1.3c1.1,0,1.7-0.5,1.7-1.3c0-0.6-0.4-1.1-1.4-1.3l-0.7-0.1
		c-1.5-0.2-2.7-0.8-2.7-2.4c0-1.6,1.3-2.4,2.9-2.4c1.3,0,2.2,0.5,2.9,1.3l-0.8,0.8c-0.4-0.5-1.1-1-2.1-1c-1.1,0-1.6,0.5-1.6,1.3
		c0,0.8,0.6,1.1,1.6,1.3l0.6,0.1c1.8,0.3,2.5,1.1,2.5,2.3c0,1.6-1.2,2.6-3.1,2.6C304.5,63.9,303.5,63.3,302.8,62.3z"/>
	<path d="M321.2,63.7c-0.9,0-1.3-0.6-1.4-1.3h-0.1c-0.4,1-1.2,1.5-2.4,1.5c-1.7,0-2.8-1-2.8-2.5c0-1.6,1.1-2.4,3.5-2.4h1.6v-0.8
		c0-1.2-0.6-1.8-2-1.8c-1,0-1.6,0.5-2.1,1.2l-0.8-0.7c0.4-0.9,1.4-1.6,2.9-1.6c2,0,3.2,1,3.2,2.8v4.5h0.9v1.1H321.2z M319.7,61.3
		v-1.4H318c-1.5,0-2.1,0.4-2.1,1.2v0.3c0,0.8,0.6,1.3,1.6,1.3C318.7,62.8,319.7,62.2,319.7,61.3z"/>
	<path d="M323.7,63.7v-8.3h1.3v1.3h0.1c0.4-0.9,1.1-1.5,2.3-1.5c1.7,0,2.8,1.2,2.8,3.2v5.3h-1.3v-5.1c0-1.5-0.6-2.2-1.9-2.2
		c-1,0-2,0.5-2,1.6v5.7H323.7z"/>
	<path d="M338.1,62.4L338.1,62.4c-0.6,1-1.3,1.5-2.5,1.5c-2.1,0-3.4-1.7-3.4-4.3c0-2.6,1.3-4.3,3.4-4.3c1.1,0,2,0.5,2.4,1.5h0.1
		v-4.9h1.3v11.8h-1.3V62.4z M338.1,61.1V58c0-0.9-1-1.6-2.1-1.6c-1.4,0-2.3,1-2.3,2.5v1.4c0,1.5,0.9,2.5,2.3,2.5
		C337.1,62.7,338.1,62.1,338.1,61.1z"/>
	<path d="M346,52.5h3.7c2.8,0,4.6,1.9,4.6,5.6s-1.8,5.6-4.6,5.6H346V52.5z M349.7,62.5c1.8,0,3.1-1.3,3.1-3.5v-1.8
		c0-2.2-1.3-3.5-3.1-3.5h-2.4v8.8H349.7z"/>
	<path d="M356,59.6c0-2.6,1.5-4.3,3.7-4.3c2.2,0,3.6,1.7,3.6,4v0.6h-5.9v0.4c0,1.4,0.9,2.5,2.4,2.5c1,0,1.8-0.5,2.3-1.4l0.9,0.7
		c-0.5,1.1-1.7,1.9-3.3,1.9C357.4,63.9,356,62.2,356,59.6z M357.3,58.8v0.1h4.6v-0.2c0-1.5-0.9-2.4-2.2-2.4
		C358.3,56.3,357.3,57.4,357.3,58.8z"/>
	<path d="M367.1,63.7l-2.9-8.3h1.3l1.4,4.1l0.9,2.8h0.1l0.9-2.8l1.5-4.1h1.2l-2.9,8.3H367.1z"/>
	<path d="M373,52.8v-0.2c0-0.4,0.2-0.7,0.8-0.7c0.5,0,0.8,0.3,0.8,0.7v0.2c0,0.4-0.2,0.7-0.8,0.7C373.2,53.5,373,53.2,373,52.8z
		 M373.1,55.4h1.3v8.3h-1.3V55.4z"/>
	<path d="M376.5,59.6c0-2.6,1.4-4.3,3.7-4.3c1.6,0,2.6,0.8,3.1,1.9l-1.1,0.5c-0.3-0.8-1-1.3-2-1.3c-1.5,0-2.3,1-2.3,2.5v1.4
		c0,1.4,0.8,2.5,2.3,2.5c1,0,1.8-0.5,2.2-1.4l0.9,0.6c-0.5,1.2-1.6,2-3.2,2C377.9,63.9,376.5,62.2,376.5,59.6z"/>
	<path d="M384.4,59.6c0-2.6,1.5-4.3,3.7-4.3c2.2,0,3.6,1.7,3.6,4v0.6h-5.9v0.4c0,1.4,0.9,2.5,2.4,2.5c1,0,1.8-0.5,2.3-1.4l0.9,0.7
		c-0.5,1.1-1.7,1.9-3.3,1.9C385.9,63.9,384.4,62.2,384.4,59.6z M385.8,58.8v0.1h4.6v-0.2c0-1.5-0.9-2.4-2.2-2.4
		C386.8,56.3,385.8,57.4,385.8,58.8z"/>
	<path d="M401.5,53.7v10h-1.3v-10h-3.6v-1.2h8.5v1.2H401.5z"/>
	<path d="M411.2,55.4h1.3l-3.7,10.2c-0.4,1-0.7,1.3-1.9,1.3h-0.7v-1.1h1.3l0.6-1.8l-3.1-8.6h1.3l2,5.6l0.4,1.3h0.1l0.4-1.3
		L411.2,55.4z"/>
	<path d="M414.1,55.4h1.3v1.3h0.1c0.4-1,1.3-1.5,2.4-1.5c2.1,0,3.4,1.7,3.4,4.3c0,2.6-1.3,4.3-3.4,4.3c-1.1,0-1.9-0.5-2.4-1.5h-0.1
		v4.5h-1.3V55.4z M419.9,60.3v-1.4c0-1.5-0.9-2.5-2.3-2.5c-1.2,0-2.1,0.7-2.1,1.6v3.1c0,1.1,1,1.7,2.1,1.7
		C419,62.7,419.9,61.8,419.9,60.3z"/>
	<path d="M422.8,59.6c0-2.6,1.5-4.3,3.7-4.3c2.2,0,3.6,1.7,3.6,4v0.6h-5.9v0.4c0,1.4,0.9,2.5,2.4,2.5c1,0,1.8-0.5,2.3-1.4l0.9,0.7
		c-0.5,1.1-1.7,1.9-3.3,1.9C424.3,63.9,422.8,62.2,422.8,59.6z M424.1,58.8v0.1h4.6v-0.2c0-1.5-0.9-2.4-2.2-2.4
		C425.1,56.3,424.1,57.4,424.1,58.8z"/>
	<path d="M431.4,62.3l0.9-0.7c0.6,0.8,1.4,1.3,2.4,1.3c1.1,0,1.7-0.5,1.7-1.3c0-0.6-0.4-1.1-1.4-1.3l-0.7-0.1
		c-1.5-0.2-2.7-0.8-2.7-2.4c0-1.6,1.3-2.4,2.9-2.4c1.3,0,2.2,0.5,2.9,1.3l-0.8,0.8c-0.4-0.5-1.1-1-2.1-1c-1.1,0-1.6,0.5-1.6,1.3
		c0,0.8,0.6,1.1,1.6,1.3l0.6,0.1c1.8,0.3,2.5,1.1,2.5,2.3c0,1.6-1.2,2.6-3.1,2.6C433.1,63.9,432.1,63.3,431.4,62.3z"/>
	<path d="M271.8,74.6h1.2l0.9,3.6l0.9,3.6h0l1-3.6l1-3.6h1.1l1.1,3.6l1,3.6h0l0.8-3.6l0.9-3.6h1.2l-2.2,8.3h-1.6l-1.2-4l-0.7-2.5h0
		l-0.7,2.5l-1.2,4H274L271.8,74.6z"/>
	<path d="M283.8,85.3l4.2-14.3h1.2l-4.2,14.3H283.8z"/>
	<path d="M295,82.9V71.7h1.3v10h4.8v1.2H295z"/>
	<path d="M302.1,78.8c0-2.6,1.5-4.3,3.7-4.3s3.7,1.7,3.7,4.3s-1.5,4.3-3.7,4.3S302.1,81.4,302.1,78.8z M308.2,79.4v-1.2
		c0-1.7-1-2.6-2.4-2.6s-2.4,0.8-2.4,2.6v1.2c0,1.7,1,2.6,2.4,2.6S308.2,81.1,308.2,79.4z"/>
	<path d="M314.6,86.3c-2.6,0-3.6-0.7-3.6-2c0-0.9,0.5-1.4,1.3-1.6v-0.2c-0.5-0.2-0.7-0.6-0.7-1.2c0-0.8,0.6-1.2,1.4-1.4v-0.1
		c-1-0.5-1.6-1.4-1.6-2.5c0-1.7,1.2-2.8,3.1-2.8c0.6,0,1.1,0.1,1.6,0.3v-0.1c0-0.6,0.3-1.1,1-1.1h1.2v1.1h-1.6v0.5
		c0.6,0.5,0.9,1.2,0.9,2.1c0,1.7-1.2,2.8-3.1,2.8c-0.3,0-0.6,0-0.8-0.1c-0.5,0.1-1.1,0.4-1.1,0.9c0,0.5,0.5,0.6,1.3,0.6h1.8
		c2,0,2.9,0.8,2.9,2.2C318.7,85.5,317.3,86.3,314.6,86.3z M315.7,82.8H313c-0.5,0.2-0.8,0.6-0.8,1.1c0,0.7,0.5,1.3,1.8,1.3h1.2
		c1.4,0,2.3-0.4,2.3-1.3C317.5,83.3,317,82.8,315.7,82.8z M316.4,77.5v-0.4c0-1.1-0.7-1.6-1.8-1.6s-1.8,0.5-1.8,1.6v0.4
		c0,1.1,0.7,1.6,1.8,1.6S316.4,78.6,316.4,77.5z"/>
	<path d="M320,72v-0.2c0-0.4,0.2-0.7,0.8-0.7c0.5,0,0.8,0.3,0.8,0.7V72c0,0.4-0.2,0.7-0.8,0.7C320.2,72.7,320,72.4,320,72z
		 M320.1,74.6h1.3v8.3h-1.3V74.6z"/>
	<path d="M323.5,78.8c0-2.6,1.4-4.3,3.7-4.3c1.6,0,2.6,0.8,3.1,1.9l-1.1,0.5c-0.3-0.8-1-1.3-2-1.3c-1.5,0-2.3,1-2.3,2.5v1.4
		c0,1.4,0.8,2.5,2.3,2.5c1,0,1.8-0.5,2.2-1.4l0.9,0.6c-0.5,1.2-1.6,2-3.2,2C324.9,83.1,323.5,81.4,323.5,78.8z"/>
	<path d="M338.2,82.9c-0.9,0-1.3-0.6-1.4-1.3h-0.1c-0.4,1-1.2,1.5-2.4,1.5c-1.7,0-2.8-1-2.8-2.5c0-1.6,1.1-2.4,3.5-2.4h1.6v-0.8
		c0-1.2-0.6-1.8-2-1.8c-1,0-1.6,0.5-2.1,1.2l-0.8-0.7c0.4-0.9,1.4-1.6,2.9-1.6c2,0,3.2,1,3.2,2.8v4.5h0.9v1.1H338.2z M336.7,80.5
		v-1.4H335c-1.5,0-2.1,0.4-2.1,1.2v0.3c0,0.8,0.6,1.3,1.6,1.3C335.8,82,336.7,81.4,336.7,80.5z"/>
	<path d="M342.1,82.9c-0.9,0-1.4-0.6-1.4-1.3V71.1h1.3v10.7h1.2v1.1H342.1z"/>
	<path d="M348.5,82.9v-1.1h1.6v-8.9h-1.6v-1.1h4.5v1.1h-1.6v8.9h1.6v1.1H348.5z"/>
	<path d="M355.3,82.9v-8.3h1.3V76h0.1c0.4-0.9,1.1-1.5,2.3-1.5c1.7,0,2.8,1.2,2.8,3.2v5.3h-1.3v-5.1c0-1.5-0.6-2.2-1.9-2.2
		c-1,0-2,0.5-2,1.6v5.7H355.3z"/>
	<path d="M366.2,82.9c-0.9,0-1.4-0.6-1.4-1.4v-5.8h-1.4v-1.1h0.8c0.5,0,0.7-0.2,0.7-0.8v-1.5h1.2v2.3h1.8v1.1h-1.8v6h1.7v1.1H366.2z
		"/>
	<path d="M369.3,78.8c0-2.6,1.5-4.3,3.7-4.3c2.2,0,3.6,1.7,3.6,4v0.6h-5.9v0.4c0,1.4,0.9,2.5,2.4,2.5c1,0,1.8-0.5,2.3-1.4l0.9,0.7
		c-0.5,1.1-1.7,1.9-3.3,1.9C370.8,83.1,369.3,81.4,369.3,78.8z M370.6,78v0.1h4.6V78c0-1.5-0.9-2.4-2.2-2.4
		C371.6,75.5,370.6,76.6,370.6,78z"/>
	<path d="M378.7,82.9v-8.3h1.3v1.5h0.1c0.3-0.8,1-1.5,2.4-1.5h0.5v1.3h-0.8c-1.4,0-2.2,0.6-2.2,1.4v5.6H378.7z"/>
	<path d="M385.1,75.8h-1.3v-1.1h1.3V73c0-1.1,0.6-1.9,1.8-1.9h1.2v1.1h-1.8v2.5h1.8v1.1h-1.8v7.1h-1.3V75.8z"/>
	<path d="M395.8,82.9c-0.9,0-1.3-0.6-1.4-1.3h-0.1c-0.4,1-1.2,1.5-2.4,1.5c-1.7,0-2.8-1-2.8-2.5c0-1.6,1.1-2.4,3.5-2.4h1.6v-0.8
		c0-1.2-0.6-1.8-2-1.8c-1,0-1.6,0.5-2.1,1.2l-0.8-0.7c0.4-0.9,1.4-1.6,2.9-1.6c2,0,3.2,1,3.2,2.8v4.5h0.9v1.1H395.8z M394.3,80.5
		v-1.4h-1.7c-1.5,0-2.1,0.4-2.1,1.2v0.3c0,0.8,0.6,1.3,1.6,1.3C393.4,82,394.3,81.4,394.3,80.5z"/>
	<path d="M397.7,78.8c0-2.6,1.4-4.3,3.7-4.3c1.6,0,2.6,0.8,3.1,1.9l-1.1,0.5c-0.3-0.8-1-1.3-2-1.3c-1.5,0-2.3,1-2.3,2.5v1.4
		c0,1.4,0.8,2.5,2.3,2.5c1,0,1.8-0.5,2.2-1.4l0.9,0.6c-0.5,1.2-1.6,2-3.2,2C399.1,83.1,397.7,81.4,397.7,78.8z"/>
	<path d="M405.7,78.8c0-2.6,1.5-4.3,3.7-4.3c2.2,0,3.6,1.7,3.6,4v0.6H407v0.4c0,1.4,0.9,2.5,2.4,2.5c1,0,1.8-0.5,2.3-1.4l0.9,0.7
		c-0.5,1.1-1.7,1.9-3.3,1.9C407.2,83.1,405.7,81.4,405.7,78.8z M407,78v0.1h4.6V78c0-1.5-0.9-2.4-2.2-2.4C408,75.5,407,76.6,407,78z
		"/>
	<path d="M414.3,81.5l0.9-0.7c0.6,0.8,1.4,1.3,2.4,1.3c1.1,0,1.7-0.5,1.7-1.3c0-0.6-0.4-1.1-1.4-1.3l-0.7-0.1
		c-1.5-0.2-2.7-0.8-2.7-2.4c0-1.6,1.3-2.4,2.9-2.4c1.3,0,2.2,0.5,2.9,1.3l-0.8,0.8c-0.4-0.5-1.1-1-2.1-1c-1.1,0-1.6,0.5-1.6,1.3
		c0,0.8,0.6,1.1,1.6,1.3l0.6,0.1c1.8,0.3,2.5,1.1,2.5,2.3c0,1.6-1.2,2.6-3.1,2.6C416,83.1,415,82.5,414.3,81.5z"/>
</g>
<g>
	<path d="M553.4,54.1H552V42.9h4.4c2,0,3.1,1.1,3.1,3.2c0,1.6-0.8,2.7-2.2,3.1l2.6,4.9h-1.5l-2.4-4.8h-2.6V54.1z M556.5,48.2
		c1.1,0,1.7-0.6,1.7-1.6v-0.8c0-1-0.6-1.6-1.7-1.6h-3.1v4H556.5z"/>
	<path d="M561.3,50c0-2.6,1.5-4.3,3.7-4.3s3.7,1.7,3.7,4.3s-1.5,4.3-3.7,4.3S561.3,52.6,561.3,50z M567.4,50.6v-1.2
		c0-1.7-1-2.6-2.4-2.6s-2.4,0.8-2.4,2.6v1.2c0,1.7,1,2.6,2.4,2.6S567.4,52.3,567.4,50.6z"/>
	<path d="M570.2,50c0-2.6,1.5-4.3,3.7-4.3s3.7,1.7,3.7,4.3s-1.5,4.3-3.7,4.3S570.2,52.6,570.2,50z M576.3,50.6v-1.2
		c0-1.7-1-2.6-2.4-2.6s-2.4,0.8-2.4,2.6v1.2c0,1.7,1,2.6,2.4,2.6S576.3,52.3,576.3,50.6z"/>
	<path d="M579.8,54.1v-8.3h1.3v1.3h0.1c0.4-0.8,0.9-1.5,2.2-1.5c1.1,0,2.1,0.5,2.5,1.7h0c0.3-0.9,1.1-1.7,2.5-1.7
		c1.7,0,2.7,1.2,2.7,3.2v5.3h-1.3V49c0-1.5-0.6-2.2-1.8-2.2c-1,0-1.9,0.5-1.9,1.6v5.7h-1.3V49c0-1.5-0.6-2.2-1.8-2.2
		c-1,0-2,0.5-2,1.6v5.7H579.8z"/>
	<path d="M601.4,44.1v10h-1.3v-10h-3.6v-1.2h8.5v1.2H601.4z"/>
	<path d="M606.7,42.3h1.3v4.9h0.1c0.4-0.9,1.1-1.5,2.3-1.5c1.7,0,2.8,1.2,2.8,3.2v5.3h-1.3V49c0-1.5-0.6-2.2-1.9-2.2
		c-1,0-2,0.5-2,1.6v5.7h-1.3V42.3z"/>
	<path d="M615.6,43.2V43c0-0.4,0.2-0.7,0.8-0.7c0.5,0,0.8,0.3,0.8,0.7v0.2c0,0.4-0.2,0.7-0.8,0.7C615.9,43.9,615.6,43.6,615.6,43.2z
		 M615.8,45.8h1.3v8.3h-1.3V45.8z"/>
	<path d="M619.8,54.1v-8.3h1.3v1.3h0.1c0.4-0.9,1.1-1.5,2.3-1.5c1.7,0,2.8,1.2,2.8,3.2v5.3H625V49c0-1.5-0.6-2.2-1.9-2.2
		c-1,0-2,0.5-2,1.6v5.7H619.8z"/>
	<path d="M631.8,57.5c-2.6,0-3.6-0.7-3.6-2c0-0.9,0.5-1.4,1.3-1.6v-0.2c-0.5-0.2-0.7-0.6-0.7-1.2c0-0.8,0.6-1.2,1.4-1.4V51
		c-1-0.5-1.6-1.4-1.6-2.5c0-1.7,1.2-2.8,3.1-2.8c0.6,0,1.1,0.1,1.6,0.3v-0.1c0-0.6,0.3-1.1,1-1.1h1.2v1.1H634v0.5
		c0.6,0.5,0.9,1.2,0.9,2.1c0,1.7-1.2,2.8-3.1,2.8c-0.3,0-0.6,0-0.8-0.1c-0.5,0.1-1.1,0.4-1.1,0.9c0,0.5,0.5,0.6,1.3,0.6h1.8
		c2,0,2.9,0.8,2.9,2.2C635.8,56.7,634.5,57.5,631.8,57.5z M632.9,54h-2.8c-0.5,0.2-0.8,0.6-0.8,1.1c0,0.7,0.5,1.3,1.8,1.3h1.2
		c1.4,0,2.3-0.4,2.3-1.3C634.6,54.5,634.2,54,632.9,54z M633.6,48.7v-0.4c0-1.1-0.7-1.6-1.8-1.6s-1.8,0.5-1.8,1.6v0.4
		c0,1.1,0.7,1.6,1.8,1.6S633.6,49.8,633.6,48.7z"/>
	<path d="M645,44.1v10h-1.3v-10h-3.6v-1.2h8.5v1.2H645z"/>
	<path d="M654.7,45.8h1.3L652.3,56c-0.4,1-0.7,1.3-1.9,1.3h-0.7v-1.1h1.3l0.6-1.8l-3.1-8.6h1.3l2,5.6l0.4,1.3h0.1l0.4-1.3
		L654.7,45.8z"/>
	<path d="M657.6,45.8h1.3v1.3h0.1c0.4-1,1.3-1.5,2.4-1.5c2.1,0,3.4,1.7,3.4,4.3c0,2.6-1.3,4.3-3.4,4.3c-1.1,0-1.9-0.5-2.4-1.5h-0.1
		v4.5h-1.3V45.8z M663.3,50.7v-1.4c0-1.5-0.9-2.5-2.3-2.5c-1.2,0-2.1,0.7-2.1,1.6v3.1c0,1.1,1,1.7,2.1,1.7
		C662.5,53.1,663.3,52.2,663.3,50.7z"/>
	<path d="M666.3,50c0-2.6,1.5-4.3,3.7-4.3c2.2,0,3.6,1.7,3.6,4v0.6h-5.9v0.4c0,1.4,0.9,2.5,2.4,2.5c1,0,1.8-0.5,2.3-1.4l0.9,0.7
		c-0.5,1.1-1.7,1.9-3.3,1.9C667.7,54.3,666.3,52.6,666.3,50z M667.6,49.2v0.1h4.6v-0.2c0-1.5-0.9-2.4-2.2-2.4
		C668.6,46.7,667.6,47.8,667.6,49.2z"/>
	<path d="M532.5,65h1.2l0.9,3.6l0.9,3.6h0l1-3.6l1-3.6h1.1l1.1,3.6l1,3.6h0l0.8-3.6l0.9-3.6h1.2l-2.2,8.3H540l-1.2-4l-0.7-2.5h0
		l-0.7,2.5l-1.2,4h-1.6L532.5,65z"/>
	<path d="M544.4,75.7l4.2-14.3h1.2l-4.2,14.3H544.4z"/>
	<path d="M555.6,73.3V62.1h1.3v10h4.8v1.2H555.6z"/>
	<path d="M562.8,69.2c0-2.6,1.5-4.3,3.7-4.3s3.7,1.7,3.7,4.3s-1.5,4.3-3.7,4.3S562.8,71.8,562.8,69.2z M568.8,69.8v-1.2
		c0-1.7-1-2.6-2.4-2.6s-2.4,0.8-2.4,2.6v1.2c0,1.7,1,2.6,2.4,2.6S568.8,71.5,568.8,69.8z"/>
	<path d="M575.3,76.7c-2.6,0-3.6-0.7-3.6-2c0-0.9,0.5-1.4,1.3-1.6v-0.2c-0.5-0.2-0.7-0.6-0.7-1.2c0-0.8,0.6-1.2,1.4-1.4v-0.1
		c-1-0.5-1.6-1.4-1.6-2.5c0-1.7,1.2-2.8,3.1-2.8c0.6,0,1.1,0.1,1.6,0.3V65c0-0.6,0.3-1.1,1-1.1h1.2V65h-1.6v0.5
		c0.6,0.5,0.9,1.2,0.9,2.1c0,1.7-1.2,2.8-3.1,2.8c-0.3,0-0.6,0-0.8-0.1c-0.5,0.1-1.1,0.4-1.1,0.9c0,0.5,0.5,0.6,1.3,0.6h1.8
		c2,0,2.9,0.8,2.9,2.2C579.3,75.9,577.9,76.7,575.3,76.7z M576.4,73.2h-2.8c-0.5,0.2-0.8,0.6-0.8,1.1c0,0.7,0.5,1.3,1.8,1.3h1.2
		c1.4,0,2.3-0.4,2.3-1.3C578.1,73.7,577.7,73.2,576.4,73.2z M577,67.9v-0.4c0-1.1-0.7-1.6-1.8-1.6s-1.8,0.5-1.8,1.6v0.4
		c0,1.1,0.7,1.6,1.8,1.6S577,69,577,67.9z"/>
	<path d="M580.6,62.4v-0.2c0-0.4,0.2-0.7,0.8-0.7c0.5,0,0.8,0.3,0.8,0.7v0.2c0,0.4-0.2,0.7-0.8,0.7
		C580.9,63.1,580.6,62.8,580.6,62.4z M580.8,65h1.3v8.3h-1.3V65z"/>
	<path d="M584.2,69.2c0-2.6,1.4-4.3,3.7-4.3c1.6,0,2.6,0.8,3.1,1.9l-1.1,0.5c-0.3-0.8-1-1.3-2-1.3c-1.5,0-2.3,1-2.3,2.5v1.4
		c0,1.4,0.8,2.5,2.3,2.5c1,0,1.8-0.5,2.2-1.4l0.9,0.6c-0.5,1.2-1.6,2-3.2,2C585.5,73.5,584.2,71.8,584.2,69.2z"/>
	<path d="M598.8,73.3c-0.9,0-1.3-0.6-1.4-1.3h-0.1c-0.4,1-1.2,1.5-2.4,1.5c-1.7,0-2.8-1-2.8-2.5c0-1.6,1.1-2.4,3.5-2.4h1.6v-0.8
		c0-1.2-0.6-1.8-2-1.8c-1,0-1.6,0.5-2.1,1.2l-0.8-0.7c0.4-0.9,1.4-1.6,2.9-1.6c2,0,3.2,1,3.2,2.8v4.5h0.9v1.1H598.8z M597.3,70.9
		v-1.4h-1.7c-1.5,0-2.1,0.4-2.1,1.2v0.3c0,0.8,0.6,1.3,1.6,1.3C596.4,72.4,597.3,71.8,597.3,70.9z"/>
	<path d="M602.7,73.3c-0.9,0-1.4-0.6-1.4-1.3V61.5h1.3v10.7h1.2v1.1H602.7z"/>
	<path d="M609.1,73.3v-1.1h1.6v-8.9h-1.6v-1.1h4.5v1.1H612v8.9h1.6v1.1H609.1z"/>
	<path d="M615.9,73.3V65h1.3v1.3h0.1c0.4-0.9,1.1-1.5,2.3-1.5c1.7,0,2.8,1.2,2.8,3.2v5.3h-1.3v-5.1c0-1.5-0.6-2.2-1.9-2.2
		c-1,0-2,0.5-2,1.6v5.7H615.9z"/>
	<path d="M626.8,73.3c-0.9,0-1.4-0.6-1.4-1.4v-5.8h-1.4V65h0.8c0.5,0,0.7-0.2,0.7-0.8v-1.5h1.2V65h1.8v1.1h-1.8v6h1.7v1.1H626.8z"/>
	<path d="M629.9,69.2c0-2.6,1.5-4.3,3.7-4.3c2.2,0,3.6,1.7,3.6,4v0.6h-5.9v0.4c0,1.4,0.9,2.5,2.4,2.5c1,0,1.8-0.5,2.3-1.4l0.9,0.7
		c-0.5,1.1-1.7,1.9-3.3,1.9C631.4,73.5,629.9,71.8,629.9,69.2z M631.3,68.4v0.1h4.6v-0.2c0-1.5-0.9-2.4-2.2-2.4
		C632.2,65.9,631.3,67,631.3,68.4z"/>
	<path d="M639.3,73.3V65h1.3v1.5h0.1c0.3-0.8,1-1.5,2.4-1.5h0.5v1.3h-0.8c-1.4,0-2.2,0.6-2.2,1.4v5.6H639.3z"/>
	<path d="M645.7,66.2h-1.3V65h1.3v-1.7c0-1.1,0.6-1.9,1.8-1.9h1.2v1.1H647V65h1.8v1.1H647v7.1h-1.3V66.2z"/>
	<path d="M656.4,73.3c-0.9,0-1.3-0.6-1.4-1.3h-0.1c-0.4,1-1.2,1.5-2.4,1.5c-1.7,0-2.8-1-2.8-2.5c0-1.6,1.1-2.4,3.5-2.4h1.6v-0.8
		c0-1.2-0.6-1.8-2-1.8c-1,0-1.6,0.5-2.1,1.2l-0.8-0.7c0.4-0.9,1.4-1.6,2.9-1.6c2,0,3.2,1,3.2,2.8v4.5h0.9v1.1H656.4z M654.9,70.9
		v-1.4h-1.7c-1.5,0-2.1,0.4-2.1,1.2v0.3c0,0.8,0.6,1.3,1.6,1.3C654,72.4,654.9,71.8,654.9,70.9z"/>
	<path d="M658.4,69.2c0-2.6,1.4-4.3,3.7-4.3c1.6,0,2.6,0.8,3.1,1.9l-1.1,0.5c-0.3-0.8-1-1.3-2-1.3c-1.5,0-2.3,1-2.3,2.5v1.4
		c0,1.4,0.8,2.5,2.3,2.5c1,0,1.8-0.5,2.2-1.4l0.9,0.6c-0.5,1.2-1.6,2-3.2,2C659.7,73.5,658.4,71.8,658.4,69.2z"/>
	<path d="M666.3,69.2c0-2.6,1.5-4.3,3.7-4.3c2.2,0,3.6,1.7,3.6,4v0.6h-5.9v0.4c0,1.4,0.9,2.5,2.4,2.5c1,0,1.8-0.5,2.3-1.4l0.9,0.7
		c-0.5,1.1-1.7,1.9-3.3,1.9C667.8,73.5,666.3,71.8,666.3,69.2z M667.7,68.4v0.1h4.6v-0.2c0-1.5-0.9-2.4-2.2-2.4
		C668.6,65.9,667.7,67,667.7,68.4z"/>
	<path d="M678.6,61.1h1.2c-1.8,1.6-2.9,4.3-2.9,6.5V69c0,2.2,1.2,4.9,2.9,6.5h-1.2c-1.6-1.3-2.9-4.1-2.9-7.2
		C675.7,65.2,677,62.5,678.6,61.1z"/>
	<path d="M680.3,71.9l0.9-0.7c0.6,0.8,1.4,1.3,2.4,1.3c1.1,0,1.7-0.5,1.7-1.3c0-0.6-0.4-1.1-1.4-1.3l-0.7-0.1
		c-1.5-0.2-2.7-0.8-2.7-2.4c0-1.6,1.3-2.4,2.9-2.4c1.3,0,2.2,0.5,2.9,1.3l-0.8,0.8c-0.4-0.5-1.1-1-2.1-1s-1.6,0.5-1.6,1.3
		c0,0.8,0.6,1.1,1.6,1.3l0.6,0.1c1.8,0.3,2.5,1.1,2.5,2.3c0,1.6-1.2,2.6-3.1,2.6C682,73.5,681,72.9,680.3,71.9z"/>
	<path d="M688.6,75.5h-1.2c1.7-1.5,2.9-4.2,2.9-6.5v-1.4c0-2.2-1.1-4.9-2.9-6.5h1.2c1.6,1.4,2.9,4.1,2.9,7.2
		C691.5,71.4,690.2,74.2,688.6,75.5z"/>
</g>
<g>
	<path d="M793.8,52.5v6.9c0,2.1,0.7,3.2,2.7,3.2c2,0,2.7-1.1,2.7-3.2v-6.9h1.3v6.6c0,3.2-1.1,4.8-4.1,4.8s-4-1.5-4-4.8v-6.6H793.8z"
		/>
	<path d="M802.5,62.3l0.9-0.7c0.6,0.8,1.4,1.3,2.4,1.3c1.1,0,1.7-0.5,1.7-1.3c0-0.6-0.4-1.1-1.4-1.3l-0.7-0.1
		c-1.5-0.2-2.7-0.8-2.7-2.4c0-1.6,1.3-2.4,2.9-2.4c1.3,0,2.2,0.5,2.9,1.3l-0.8,0.8c-0.4-0.5-1.1-1-2.1-1s-1.6,0.5-1.6,1.3
		c0,0.8,0.6,1.1,1.6,1.3l0.6,0.1c1.8,0.3,2.5,1.1,2.5,2.3c0,1.6-1.2,2.6-3.1,2.6C804.2,63.9,803.2,63.3,802.5,62.3z"/>
	<path d="M810.4,59.6c0-2.6,1.5-4.3,3.7-4.3c2.2,0,3.6,1.7,3.6,4v0.6h-5.9v0.4c0,1.4,0.9,2.5,2.4,2.5c1,0,1.8-0.5,2.3-1.4l0.9,0.7
		c-0.5,1.1-1.7,1.9-3.3,1.9C811.9,63.9,810.4,62.2,810.4,59.6z M811.8,58.8v0.1h4.6v-0.2c0-1.5-0.9-2.4-2.2-2.4
		C812.7,56.3,811.8,57.4,811.8,58.8z"/>
	<path d="M819.8,63.7v-8.3h1.3V57h0.1c0.3-0.8,1-1.5,2.4-1.5h0.5v1.3h-0.8c-1.4,0-2.2,0.6-2.2,1.4v5.6H819.8z"/>
	<path d="M824.9,62.3l0.9-0.7c0.6,0.8,1.4,1.3,2.4,1.3c1.1,0,1.7-0.5,1.7-1.3c0-0.6-0.4-1.1-1.4-1.3l-0.7-0.1
		c-1.5-0.2-2.7-0.8-2.7-2.4c0-1.6,1.3-2.4,2.9-2.4c1.3,0,2.2,0.5,2.9,1.3l-0.8,0.8c-0.4-0.5-1.1-1-2.1-1c-1.1,0-1.6,0.5-1.6,1.3
		c0,0.8,0.6,1.1,1.6,1.3l0.6,0.1c1.8,0.3,2.5,1.1,2.5,2.3c0,1.6-1.2,2.6-3.1,2.6C826.7,63.9,825.6,63.3,824.9,62.3z"/>
	<path d="M843.3,63.7c-0.9,0-1.3-0.6-1.4-1.3h-0.1c-0.4,1-1.2,1.5-2.4,1.5c-1.7,0-2.8-1-2.8-2.5c0-1.6,1.1-2.4,3.5-2.4h1.6v-0.8
		c0-1.2-0.6-1.8-2-1.8c-1,0-1.6,0.5-2.1,1.2l-0.8-0.7c0.4-0.9,1.4-1.6,2.9-1.6c2,0,3.2,1,3.2,2.8v4.5h0.9v1.1H843.3z M841.8,61.3
		v-1.4h-1.7c-1.5,0-2.1,0.4-2.1,1.2v0.3c0,0.8,0.6,1.3,1.6,1.3C840.8,62.8,841.8,62.2,841.8,61.3z"/>
	<path d="M845.8,63.7v-8.3h1.3v1.3h0.1c0.4-0.9,1.1-1.5,2.3-1.5c1.7,0,2.8,1.2,2.8,3.2v5.3H851v-5.1c0-1.5-0.6-2.2-1.9-2.2
		c-1,0-2,0.5-2,1.6v5.7H845.8z"/>
	<path d="M860.2,62.4L860.2,62.4c-0.6,1-1.3,1.5-2.5,1.5c-2.1,0-3.4-1.7-3.4-4.3c0-2.6,1.3-4.3,3.4-4.3c1.1,0,2,0.5,2.4,1.5h0.1
		v-4.9h1.3v11.8h-1.3V62.4z M860.2,61.1V58c0-0.9-1-1.6-2.1-1.6c-1.4,0-2.3,1-2.3,2.5v1.4c0,1.5,0.9,2.5,2.3,2.5
		C859.2,62.7,860.2,62.1,860.2,61.1z"/>
	<path d="M875.1,63.7l-1.1-3.3h-4.5l-1.1,3.3H867l3.9-11.2h1.7l3.9,11.2H875.1z M871.7,53.8L871.7,53.8l-2,5.4h3.9L871.7,53.8z"/>
	<path d="M878.2,55.4h1.3v1.3h0.1c0.4-1,1.3-1.5,2.4-1.5c2.1,0,3.4,1.7,3.4,4.3c0,2.6-1.3,4.3-3.4,4.3c-1.1,0-1.9-0.5-2.4-1.5h-0.1
		v4.5h-1.3V55.4z M883.9,60.3v-1.4c0-1.5-0.9-2.5-2.3-2.5c-1.2,0-2.1,0.7-2.1,1.6v3.1c0,1.1,1,1.7,2.1,1.7
		C883.1,62.7,883.9,61.8,883.9,60.3z"/>
	<path d="M887.5,55.4h1.3v1.3h0.1c0.4-1,1.3-1.5,2.4-1.5c2.1,0,3.4,1.7,3.4,4.3c0,2.6-1.3,4.3-3.4,4.3c-1.1,0-1.9-0.5-2.4-1.5h-0.1
		v4.5h-1.3V55.4z M893.2,60.3v-1.4c0-1.5-0.9-2.5-2.3-2.5c-1.2,0-2.1,0.7-2.1,1.6v3.1c0,1.1,1,1.7,2.1,1.7
		C892.3,62.7,893.2,61.8,893.2,60.3z"/>
	<path d="M898.1,63.7c-0.9,0-1.4-0.6-1.4-1.3V51.9h1.3v10.7h1.2v1.1H898.1z"/>
	<path d="M901,52.8v-0.2c0-0.4,0.2-0.7,0.8-0.7c0.5,0,0.8,0.3,0.8,0.7v0.2c0,0.4-0.2,0.7-0.8,0.7C901.2,53.5,901,53.2,901,52.8z
		 M901.1,55.4h1.3v8.3h-1.3V55.4z"/>
	<path d="M904.5,59.6c0-2.6,1.4-4.3,3.7-4.3c1.6,0,2.6,0.8,3.1,1.9l-1.1,0.5c-0.3-0.8-1-1.3-2-1.3c-1.5,0-2.3,1-2.3,2.5v1.4
		c0,1.4,0.8,2.5,2.3,2.5c1,0,1.8-0.5,2.2-1.4l0.9,0.6c-0.5,1.2-1.6,2-3.2,2C905.9,63.9,904.5,62.2,904.5,59.6z"/>
	<path d="M919.2,63.7c-0.9,0-1.3-0.6-1.4-1.3h-0.1c-0.4,1-1.2,1.5-2.4,1.5c-1.7,0-2.8-1-2.8-2.5c0-1.6,1.1-2.4,3.5-2.4h1.6v-0.8
		c0-1.2-0.6-1.8-2-1.8c-1,0-1.6,0.5-2.1,1.2l-0.8-0.7c0.4-0.9,1.4-1.6,2.9-1.6c2,0,3.2,1,3.2,2.8v4.5h0.9v1.1H919.2z M917.7,61.3
		v-1.4H916c-1.5,0-2.1,0.4-2.1,1.2v0.3c0,0.8,0.6,1.3,1.6,1.3C916.7,62.8,917.7,62.2,917.7,61.3z"/>
	<path d="M923.5,63.7c-0.9,0-1.4-0.6-1.4-1.4v-5.8h-1.4v-1.1h0.8c0.5,0,0.7-0.2,0.7-0.8v-1.5h1.2v2.3h1.8v1.1h-1.8v6h1.7v1.1H923.5z
		"/>
	<path d="M927.2,52.8v-0.2c0-0.4,0.2-0.7,0.8-0.7s0.8,0.3,0.8,0.7v0.2c0,0.4-0.2,0.7-0.8,0.7S927.2,53.2,927.2,52.8z M927.3,55.4
		h1.3v8.3h-1.3V55.4z"/>
	<path d="M930.7,59.6c0-2.6,1.5-4.3,3.7-4.3s3.7,1.7,3.7,4.3s-1.5,4.3-3.7,4.3S930.7,62.2,930.7,59.6z M936.8,60.2V59
		c0-1.7-1-2.6-2.4-2.6c-1.4,0-2.4,0.8-2.4,2.6v1.2c0,1.7,1,2.6,2.4,2.6C935.8,62.8,936.8,61.9,936.8,60.2z"/>
	<path d="M940.3,63.7v-8.3h1.3v1.3h0.1c0.4-0.9,1.1-1.5,2.3-1.5c1.7,0,2.8,1.2,2.8,3.2v5.3h-1.3v-5.1c0-1.5-0.6-2.2-1.9-2.2
		c-1,0-2,0.5-2,1.6v5.7H940.3z"/>
	<path d="M948.6,62.3l0.9-0.7c0.6,0.8,1.4,1.3,2.4,1.3c1.1,0,1.7-0.5,1.7-1.3c0-0.6-0.4-1.1-1.4-1.3l-0.7-0.1
		c-1.5-0.2-2.7-0.8-2.7-2.4c0-1.6,1.3-2.4,2.9-2.4c1.3,0,2.2,0.5,2.9,1.3l-0.8,0.8c-0.4-0.5-1.1-1-2.1-1c-1.1,0-1.6,0.5-1.6,1.3
		c0,0.8,0.6,1.1,1.6,1.3l0.6,0.1c1.8,0.3,2.5,1.1,2.5,2.3c0,1.6-1.2,2.6-3.1,2.6C950.3,63.9,949.3,63.3,948.6,62.3z"/>
</g>
<g>
	<path d="M193.9,164.7c-0.8,0-1.4-0.6-1.4-1.4v-3.6c0-0.9-0.7-1.4-1.6-1.4v-1.5c0.9,0,1.6-0.5,1.6-1.4v-3.6c0-0.9,0.5-1.4,1.4-1.4
		h1.5v1.3h-1.3v3.8c0,1-0.7,1.9-1.6,2v0.2c0.9,0.2,1.6,1,1.6,2v3.8h1.3v1.3H193.9z"/>
	<path d="M201.1,153.9v-0.3c0-1,0.7-2.3,1.6-3h1.2c-0.7,0.7-1.1,1.2-1.3,2c0.5,0.1,0.8,0.5,0.8,1v0.3c0,0.6-0.4,1-1.2,1
		S201.1,154.5,201.1,153.9z M204.6,153.9v-0.3c0-1,0.7-2.3,1.6-3h1.2c-0.7,0.7-1.1,1.2-1.3,2c0.5,0.1,0.8,0.5,0.8,1v0.3
		c0,0.6-0.4,1-1.2,1S204.6,154.5,204.6,153.9z"/>
	<path d="M211.8,162.4c-1.2,0-1.8-0.7-1.8-1.8v-5.1h-1.3v-1.4h0.7c0.6,0,0.8-0.2,0.8-0.8v-1.5h1.6v2.3h1.7v1.4h-1.7v5.5h1.6v1.4
		H211.8z"/>
	<path d="M217.8,151.5v0.3c0,1-0.6,2.3-1.6,3H215c0.7-0.7,1.1-1.3,1.3-2c-0.5-0.1-0.8-0.5-0.8-1v-0.3c0-0.6,0.4-1,1.2-1
		C217.5,150.4,217.8,150.9,217.8,151.5z M221.3,151.5v0.3c0,1-0.6,2.3-1.6,3h-1.2c0.7-0.7,1.1-1.3,1.3-2c-0.5-0.1-0.8-0.5-0.8-1
		v-0.3c0-0.6,0.4-1,1.2-1S221.3,150.9,221.3,151.5z"/>
	<path d="M223.3,155.3v-0.2c0-0.6,0.4-1.1,1.2-1.1c0.8,0,1.2,0.5,1.2,1.1v0.2c0,0.6-0.4,1.1-1.2,1.1
		C223.7,156.4,223.3,156,223.3,155.3z M223.3,161.6v-0.2c0-0.6,0.4-1.1,1.2-1.1c0.8,0,1.2,0.5,1.2,1.1v0.2c0,0.6-0.4,1.1-1.2,1.1
		C223.7,162.6,223.3,162.2,223.3,161.6z"/>
	<path d="M232.1,162.4v-1.5h3v-8l-2.9,1.7l-0.7-1.3l3.5-2h1.9v9.7h2.7v1.5H232.1z"/>
	<path d="M243.1,162.4l4-9.7h-4.2v2.1h-1.6v-3.6h7.6v1.6l-3.9,9.6H243.1z"/>
	<path d="M252.4,150.3c0.8,0,1.4,0.6,1.4,1.4v3.6c0,0.9,0.7,1.4,1.6,1.4v1.5c-0.9,0-1.6,0.5-1.6,1.4v3.6c0,0.9-0.6,1.4-1.4,1.4h-1.5
		v-1.3h1.4v-3.8c0-1,0.7-1.9,1.6-2v-0.2c-0.9-0.2-1.6-1-1.6-2v-3.8h-1.4v-1.3H252.4z"/>
</g>
<g>
	<rect x="177.1" y="282" fill="#0D1111" width="91.9" height="1.1"/>
</g>
<g>
	<rect x="177.1" y="174" fill="#0D1111" width="91.9" height="1.1"/>
</g>
<g>
	<path d="M180.8,273.7c-0.8,0-1.4-0.6-1.4-1.4v-3.6c0-0.9-0.7-1.4-1.6-1.4v-1.5c0.9,0,1.6-0.5,1.6-1.4v-3.6c0-0.9,0.5-1.4,1.4-1.4
		h1.5v1.3H181v3.8c0,1-0.7,1.9-1.6,2v0.2c0.9,0.2,1.6,1,1.6,2v3.8h1.3v1.3H180.8z"/>
	<path d="M188,262.9v-0.3c0-1,0.7-2.3,1.6-3h1.2c-0.7,0.7-1.1,1.2-1.3,2c0.5,0.1,0.8,0.5,0.8,1v0.3c0,0.6-0.4,1-1.2,1
		S188,263.5,188,262.9z M191.5,262.9v-0.3c0-1,0.7-2.3,1.6-3h1.2c-0.7,0.7-1.1,1.2-1.3,2c0.5,0.1,0.8,0.5,0.8,1v0.3
		c0,0.6-0.4,1-1.2,1S191.5,263.5,191.5,262.9z"/>
	<path d="M196.2,259.6h1.7v4.9h0.1c0.4-0.9,1.1-1.6,2.3-1.6c1.7,0,2.7,1.2,2.7,3.2v5.3h-1.7v-5.1c0-1.3-0.5-1.9-1.6-1.9
		c-0.9,0-1.8,0.5-1.8,1.4v5.6h-1.7V259.6z"/>
	<path d="M210.6,270.1L210.6,270.1c-0.4,0.8-1,1.6-2.4,1.6c-1.7,0-2.7-1.2-2.7-3.2v-5.3h1.7v5.1c0,1.3,0.5,1.9,1.6,1.9
		c0.9,0,1.8-0.5,1.8-1.4v-5.6h1.7v8.3h-1.7V270.1z"/>
	<path d="M214.8,271.4v-8.3h1.7v1.4h0.1c0.3-0.9,1-1.6,2.2-1.6c1.1,0,2.1,0.5,2.5,1.7h0c0.3-0.9,1.2-1.7,2.5-1.7
		c1.6,0,2.6,1.2,2.6,3.2v5.3h-1.7v-5.1c0-1.3-0.5-1.9-1.5-1.9c-0.9,0-1.7,0.5-1.7,1.4v5.6h-1.7v-5.1c0-1.3-0.5-1.9-1.5-1.9
		c-0.9,0-1.7,0.5-1.7,1.4v5.6H214.8z"/>
	<path d="M230.9,260.5v0.3c0,1-0.6,2.3-1.6,3h-1.2c0.7-0.7,1.1-1.3,1.3-2c-0.5-0.1-0.8-0.5-0.8-1v-0.3c0-0.6,0.4-1,1.2-1
		C230.6,259.4,230.9,259.9,230.9,260.5z M234.4,260.5v0.3c0,1-0.6,2.3-1.6,3h-1.2c0.7-0.7,1.1-1.3,1.3-2c-0.5-0.1-0.8-0.5-0.8-1
		v-0.3c0-0.6,0.4-1,1.2-1S234.4,259.9,234.4,260.5z"/>
	<path d="M236.4,264.3v-0.2c0-0.6,0.4-1.1,1.2-1.1c0.8,0,1.2,0.5,1.2,1.1v0.2c0,0.6-0.4,1.1-1.2,1.1
		C236.8,265.4,236.4,265,236.4,264.3z M236.4,270.6v-0.2c0-0.6,0.4-1.1,1.2-1.1c0.8,0,1.2,0.5,1.2,1.1v0.2c0,0.6-0.4,1.1-1.2,1.1
		C236.8,271.6,236.4,271.2,236.4,270.6z"/>
	<path d="M244.6,268.4c0-1.5,0.9-2.4,2.2-2.8v-0.1c-1.1-0.4-1.9-1.3-1.9-2.6c0-1.7,1.3-2.9,3.7-2.9c2.3,0,3.7,1.2,3.7,2.9
		c0,1.3-0.8,2.2-1.9,2.6v0.1c1.3,0.4,2.2,1.3,2.2,2.8c0,1.8-1.4,3.2-4,3.2S244.6,270.2,244.6,268.4z M250.8,268.4v-0.3
		c0-1.1-0.8-1.8-2.1-1.8s-2.1,0.7-2.1,1.8v0.3c0,1.1,0.8,1.8,2.1,1.8S250.8,269.5,250.8,268.4z M250.6,263.4v-0.3
		c0-1-0.7-1.6-1.9-1.6s-1.9,0.6-1.9,1.6v0.3c0,1,0.7,1.6,1.9,1.6S250.6,264.4,250.6,263.4z"/>
	<path d="M259.2,271.4v-2.2H254v-1.6l4.5-7.4h2.4v7.6h1.5v1.4h-1.5v2.2H259.2z M255.5,267.8h3.6v-5.9h-0.1L255.5,267.8z"/>
	<path d="M265.4,259.3c0.8,0,1.4,0.6,1.4,1.4v3.6c0,0.9,0.7,1.4,1.6,1.4v1.5c-0.9,0-1.6,0.5-1.6,1.4v3.6c0,0.9-0.6,1.4-1.4,1.4h-1.5
		v-1.3h1.4v-3.8c0-1,0.7-1.9,1.6-2v-0.2c-0.9-0.2-1.6-1-1.6-2v-3.8h-1.4v-1.3H265.4z"/>
</g>
<g>
	
		<rect x="535" y="165.5" transform="matrix(0.7071 -0.7071 0.7071 0.7071 22.8476 434.1589)" fill="#0D1111" width="1" height="48.1"/>
</g>
<g>
	
		<rect x="512.9" y="241" transform="matrix(0.7071 -0.7071 0.7071 0.7071 -13.922 449.3894)" fill="#0D1111" width="45.3" height="1"/>
</g>
<g>
	<path d="M429.4,164.4v-1.1h1.6v-8.9h-1.6v-1.1h4.5v1.1h-1.6v8.9h1.6v1.1H429.4z"/>
	<path d="M440,154.4v10h-1.3v-10h-3.6v-1.2h8.5v1.2H440z"/>
	<path d="M445.3,152.5h1.3v4.9h0.1c0.4-0.9,1.1-1.5,2.3-1.5c1.7,0,2.8,1.2,2.8,3.2v5.3h-1.3v-5.1c0-1.5-0.6-2.2-1.9-2.2
		c-1,0-2,0.5-2,1.6v5.7h-1.3V152.5z"/>
	<path d="M453.8,160.2c0-2.6,1.5-4.3,3.7-4.3c2.2,0,3.6,1.7,3.6,4v0.6h-5.9v0.4c0,1.4,0.9,2.5,2.4,2.5c1,0,1.8-0.5,2.3-1.4l0.9,0.7
		c-0.5,1.1-1.7,1.9-3.3,1.9C455.2,164.6,453.8,162.9,453.8,160.2z M455.1,159.5v0.1h4.6v-0.2c0-1.5-0.9-2.4-2.2-2.4
		C456.1,157,455.1,158.1,455.1,159.5z"/>
	<path d="M463.1,164.4v-8.3h1.3v1.5h0.1c0.3-0.8,1-1.5,2.4-1.5h0.5v1.3h-0.8c-1.4,0-2.2,0.6-2.2,1.4v5.6H463.1z"/>
	<path d="M469,164.4v-8.3h1.3v1.3h0.1c0.4-0.8,0.9-1.5,2.2-1.5c1.1,0,2.1,0.5,2.5,1.7h0c0.3-0.9,1.1-1.7,2.5-1.7
		c1.7,0,2.7,1.2,2.7,3.2v5.3h-1.3v-5.1c0-1.5-0.6-2.2-1.8-2.2c-1,0-1.9,0.5-1.9,1.6v5.7H474v-5.1c0-1.5-0.6-2.2-1.8-2.2
		c-1,0-2,0.5-2,1.6v5.7H469z"/>
	<path d="M482.4,160.2c0-2.6,1.5-4.3,3.7-4.3s3.7,1.7,3.7,4.3s-1.5,4.3-3.7,4.3S482.4,162.9,482.4,160.2z M488.5,160.8v-1.2
		c0-1.7-1-2.6-2.4-2.6c-1.4,0-2.4,0.8-2.4,2.6v1.2c0,1.7,1,2.6,2.4,2.6C487.5,163.4,488.5,162.6,488.5,160.8z"/>
	<path d="M491.9,164.4v-8.3h1.3v1.3h0.1c0.4-0.8,0.9-1.5,2.2-1.5c1.1,0,2.1,0.5,2.5,1.7h0c0.3-0.9,1.1-1.7,2.5-1.7
		c1.7,0,2.7,1.2,2.7,3.2v5.3H502v-5.1c0-1.5-0.6-2.2-1.8-2.2c-1,0-1.9,0.5-1.9,1.6v5.7H497v-5.1c0-1.5-0.6-2.2-1.8-2.2
		c-1,0-2,0.5-2,1.6v5.7H491.9z"/>
	<path d="M505.3,160.2c0-2.6,1.5-4.3,3.7-4.3c2.2,0,3.6,1.7,3.6,4v0.6h-5.9v0.4c0,1.4,0.9,2.5,2.4,2.5c1,0,1.8-0.5,2.3-1.4l0.9,0.7
		c-0.5,1.1-1.7,1.9-3.3,1.9C506.8,164.6,505.3,162.9,505.3,160.2z M506.6,159.5v0.1h4.6v-0.2c0-1.5-0.9-2.4-2.2-2.4
		C507.6,157,506.6,158.1,506.6,159.5z"/>
	<path d="M516.5,164.4c-0.9,0-1.4-0.6-1.4-1.4v-5.8h-1.4v-1.1h0.8c0.5,0,0.7-0.2,0.7-0.8v-1.5h1.2v2.3h1.8v1.1h-1.8v6h1.7v1.1H516.5
		z"/>
	<path d="M519.6,160.2c0-2.6,1.5-4.3,3.7-4.3c2.2,0,3.6,1.7,3.6,4v0.6H521v0.4c0,1.4,0.9,2.5,2.4,2.5c1,0,1.8-0.5,2.3-1.4l0.9,0.7
		c-0.5,1.1-1.7,1.9-3.3,1.9C521.1,164.6,519.6,162.9,519.6,160.2z M521,159.5v0.1h4.6v-0.2c0-1.5-0.9-2.4-2.2-2.4
		C522,157,521,158.1,521,159.5z"/>
	<path d="M529,164.4v-8.3h1.3v1.5h0.1c0.3-0.8,1-1.5,2.4-1.5h0.5v1.3h-0.8c-1.4,0-2.2,0.6-2.2,1.4v5.6H529z"/>
</g>
<g>
	<path d="M436.3,277.4v-1.1h1.6v-8.9h-1.6v-1.1h4.5v1.1h-1.6v8.9h1.6v1.1H436.3z"/>
	<path d="M450.2,272.1h-5.7v5.3h-1.3v-11.2h1.3v4.7h5.7v-4.7h1.3v11.2h-1.3V272.1z"/>
	<path d="M459.5,269.1h1.3l-3.7,10.2c-0.4,1-0.7,1.3-1.9,1.3h-0.7v-1.1h1.3l0.6-1.8l-3.1-8.6h1.3l2,5.6l0.4,1.3h0.1l0.4-1.3
		L459.5,269.1z"/>
	<path d="M464.9,280.8c-2.6,0-3.6-0.7-3.6-2c0-0.9,0.5-1.4,1.3-1.6V277c-0.5-0.2-0.7-0.6-0.7-1.2c0-0.8,0.6-1.2,1.4-1.4v-0.1
		c-1-0.5-1.6-1.4-1.6-2.5c0-1.7,1.2-2.8,3.1-2.8c0.6,0,1.1,0.1,1.6,0.3v-0.1c0-0.6,0.3-1.1,1-1.1h1.2v1.1H467v0.5
		c0.6,0.5,0.9,1.2,0.9,2.1c0,1.7-1.2,2.8-3.1,2.8c-0.3,0-0.6,0-0.8-0.1c-0.5,0.1-1.1,0.4-1.1,0.9c0,0.5,0.5,0.6,1.3,0.6h1.8
		c2,0,2.9,0.8,2.9,2.2C468.9,280,467.5,280.8,464.9,280.8z M465.9,277.3h-2.8c-0.5,0.2-0.8,0.6-0.8,1.1c0,0.7,0.5,1.3,1.8,1.3h1.2
		c1.4,0,2.3-0.4,2.3-1.3C467.7,277.7,467.2,277.3,465.9,277.3z M466.6,272v-0.4c0-1.1-0.7-1.6-1.8-1.6c-1.1,0-1.8,0.5-1.8,1.6v0.4
		c0,1.1,0.7,1.6,1.8,1.6C465.9,273.6,466.6,273.1,466.6,272z"/>
	<path d="M470.3,277.4v-8.3h1.3v1.5h0.1c0.3-0.8,1-1.5,2.4-1.5h0.5v1.3h-0.8c-1.4,0-2.2,0.6-2.2,1.4v5.6H470.3z"/>
	<path d="M475.5,273.2c0-2.6,1.5-4.3,3.7-4.3s3.7,1.7,3.7,4.3s-1.5,4.3-3.7,4.3S475.5,275.9,475.5,273.2z M481.6,273.8v-1.2
		c0-1.7-1-2.6-2.4-2.6c-1.4,0-2.4,0.8-2.4,2.6v1.2c0,1.7,1,2.6,2.4,2.6C480.6,276.4,481.6,275.6,481.6,273.8z"/>
	<path d="M485.1,277.4v-8.3h1.3v1.3h0.1c0.4-0.8,0.9-1.5,2.2-1.5c1.1,0,2.1,0.5,2.5,1.7h0c0.3-0.9,1.1-1.7,2.5-1.7
		c1.7,0,2.7,1.2,2.7,3.2v5.3h-1.3v-5.1c0-1.5-0.6-2.2-1.8-2.2c-1,0-1.9,0.5-1.9,1.6v5.7h-1.3v-5.1c0-1.5-0.6-2.2-1.8-2.2
		c-1,0-2,0.5-2,1.6v5.7H485.1z"/>
	<path d="M498.5,273.2c0-2.6,1.5-4.3,3.7-4.3c2.2,0,3.6,1.7,3.6,4v0.6h-5.9v0.4c0,1.4,0.9,2.5,2.4,2.5c1,0,1.8-0.5,2.3-1.4l0.9,0.7
		c-0.5,1.1-1.7,1.9-3.3,1.9C499.9,277.6,498.5,275.9,498.5,273.2z M499.8,272.5v0.1h4.6v-0.2c0-1.5-0.9-2.4-2.2-2.4
		C500.8,270,499.8,271.1,499.8,272.5z"/>
	<path d="M509.7,277.4c-0.9,0-1.4-0.6-1.4-1.4v-5.8H507v-1.1h0.8c0.5,0,0.7-0.2,0.7-0.8v-1.5h1.2v2.3h1.8v1.1h-1.8v6h1.7v1.1H509.7z
		"/>
	<path d="M512.8,273.2c0-2.6,1.5-4.3,3.7-4.3c2.2,0,3.6,1.7,3.6,4v0.6h-5.9v0.4c0,1.4,0.9,2.5,2.4,2.5c1,0,1.8-0.5,2.3-1.4l0.9,0.7
		c-0.5,1.1-1.7,1.9-3.3,1.9C514.3,277.6,512.8,275.9,512.8,273.2z M514.1,272.5v0.1h4.6v-0.2c0-1.5-0.9-2.4-2.2-2.4
		C515.1,270,514.1,271.1,514.1,272.5z"/>
	<path d="M522.2,277.4v-8.3h1.3v1.5h0.1c0.3-0.8,1-1.5,2.4-1.5h0.5v1.3h-0.8c-1.4,0-2.2,0.6-2.2,1.4v5.6H522.2z"/>
</g>
<g>
	<path d="M574,277.4v-1.1h1.6v-8.9H574v-1.1h4.5v1.1h-1.6v8.9h1.6v1.1H574z"/>
	<path d="M582.2,277.4h-1.3v-11.2h4.5c2,0,3.1,1.1,3.1,3.2c0,1.6-0.8,2.7-2.2,3.1l2.6,4.9h-1.5l-2.4-4.8h-2.6V277.4z M585.3,271.4
		c1.1,0,1.7-0.6,1.7-1.6V269c0-1-0.6-1.6-1.7-1.6h-3.1v4H585.3z"/>
	<path d="M590.2,273.2c0-2.6,1.5-4.3,3.7-4.3s3.7,1.7,3.7,4.3s-1.5,4.3-3.7,4.3S590.2,275.9,590.2,273.2z M596.2,273.8v-1.2
		c0-1.7-1-2.6-2.4-2.6c-1.4,0-2.4,0.8-2.4,2.6v1.2c0,1.7,1,2.6,2.4,2.6C595.3,276.4,596.2,275.6,596.2,273.8z"/>
	<path d="M599.1,273.2c0-2.6,1.5-4.3,3.7-4.3s3.7,1.7,3.7,4.3s-1.5,4.3-3.7,4.3S599.1,275.9,599.1,273.2z M605.2,273.8v-1.2
		c0-1.7-1-2.6-2.4-2.6c-1.4,0-2.4,0.8-2.4,2.6v1.2c0,1.7,1,2.6,2.4,2.6C604.2,276.4,605.2,275.6,605.2,273.8z"/>
	<path d="M608.7,277.4v-8.3h1.3v1.3h0.1c0.4-0.8,0.9-1.5,2.2-1.5c1.1,0,2.1,0.5,2.5,1.7h0c0.3-0.9,1.1-1.7,2.5-1.7
		c1.7,0,2.7,1.2,2.7,3.2v5.3h-1.3v-5.1c0-1.5-0.6-2.2-1.8-2.2c-1,0-1.9,0.5-1.9,1.6v5.7h-1.3v-5.1c0-1.5-0.6-2.2-1.8-2.2
		c-1,0-2,0.5-2,1.6v5.7H608.7z"/>
	<path d="M576.2,296.6c-0.9,0-1.4-0.6-1.4-1.4v-5.8h-1.4v-1.1h0.8c0.5,0,0.7-0.2,0.7-0.8V286h1.2v2.3h1.8v1.1h-1.8v6h1.7v1.1H576.2z
		"/>
	<path d="M579.3,292.4c0-2.6,1.5-4.3,3.7-4.3c2.2,0,3.6,1.7,3.6,4v0.6h-5.9v0.4c0,1.4,0.9,2.5,2.4,2.5c1,0,1.8-0.5,2.3-1.4l0.9,0.7
		c-0.5,1.1-1.7,1.9-3.3,1.9C580.8,296.8,579.3,295.1,579.3,292.4z M580.7,291.7v0.1h4.6v-0.2c0-1.5-0.9-2.4-2.2-2.4
		C581.6,289.2,580.7,290.3,580.7,291.7z"/>
	<path d="M588.7,296.6v-8.3h1.3v1.3h0.1c0.4-0.8,0.9-1.5,2.2-1.5c1.1,0,2.1,0.5,2.5,1.7h0c0.3-0.9,1.1-1.7,2.5-1.7
		c1.7,0,2.7,1.2,2.7,3.2v5.3h-1.3v-5.1c0-1.5-0.6-2.2-1.8-2.2c-1,0-1.9,0.5-1.9,1.6v5.7h-1.3v-5.1c0-1.5-0.6-2.2-1.8-2.2
		c-1,0-2,0.5-2,1.6v5.7H588.7z"/>
	<path d="M602.7,288.3h1.3v1.3h0.1c0.4-1,1.3-1.5,2.4-1.5c2.1,0,3.4,1.7,3.4,4.3c0,2.6-1.3,4.3-3.4,4.3c-1.1,0-1.9-0.5-2.4-1.5H604
		v4.5h-1.3V288.3z M608.4,293.2v-1.4c0-1.5-0.9-2.5-2.3-2.5c-1.2,0-2.1,0.7-2.1,1.6v3.1c0,1.1,1,1.7,2.1,1.7
		C607.5,295.6,608.4,294.6,608.4,293.2z"/>
	<path d="M611.3,292.4c0-2.6,1.5-4.3,3.7-4.3c2.2,0,3.6,1.7,3.6,4v0.6h-5.9v0.4c0,1.4,0.9,2.5,2.4,2.5c1,0,1.8-0.5,2.3-1.4l0.9,0.7
		c-0.5,1.1-1.7,1.9-3.3,1.9C612.8,296.8,611.3,295.1,611.3,292.4z M612.7,291.7v0.1h4.6v-0.2c0-1.5-0.9-2.4-2.2-2.4
		C613.7,289.2,612.7,290.3,612.7,291.7z"/>
	<path d="M620.7,296.6v-8.3h1.3v1.5h0.1c0.3-0.8,1-1.5,2.4-1.5h0.5v1.3h-0.8c-1.4,0-2.2,0.6-2.2,1.4v5.6H620.7z"/>
	<path d="M632.5,296.6c-0.9,0-1.3-0.6-1.4-1.3H631c-0.4,1-1.2,1.5-2.4,1.5c-1.7,0-2.8-1-2.8-2.5c0-1.6,1.1-2.4,3.5-2.4h1.6V291
		c0-1.2-0.6-1.8-2-1.8c-1,0-1.6,0.5-2.1,1.2l-0.8-0.7c0.4-0.9,1.4-1.6,2.9-1.6c2,0,3.2,1,3.2,2.8v4.5h0.9v1.1H632.5z M631,294.2
		v-1.4h-1.7c-1.5,0-2.1,0.4-2.1,1.2v0.3c0,0.8,0.6,1.3,1.6,1.3C630.1,295.7,631,295,631,294.2z"/>
	<path d="M636.9,296.6c-0.9,0-1.4-0.6-1.4-1.4v-5.8h-1.4v-1.1h0.8c0.5,0,0.7-0.2,0.7-0.8V286h1.2v2.3h1.8v1.1h-1.8v6h1.7v1.1H636.9z
		"/>
	<path d="M645.8,295.2L645.8,295.2c-0.4,0.8-1,1.5-2.4,1.5c-1.7,0-2.8-1.2-2.8-3.2v-5.3h1.3v5.1c0,1.5,0.7,2.2,1.9,2.2
		c1,0,2-0.5,2-1.6v-5.7h1.3v8.3h-1.3V295.2z"/>
	<path d="M649.8,296.6v-8.3h1.3v1.5h0.1c0.3-0.8,1-1.5,2.4-1.5h0.5v1.3h-0.8c-1.4,0-2.2,0.6-2.2,1.4v5.6H649.8z"/>
	<path d="M655,292.4c0-2.6,1.5-4.3,3.7-4.3c2.2,0,3.6,1.7,3.6,4v0.6h-5.9v0.4c0,1.4,0.9,2.5,2.4,2.5c1,0,1.8-0.5,2.3-1.4l0.9,0.7
		c-0.5,1.1-1.7,1.9-3.3,1.9C656.4,296.8,655,295.1,655,292.4z M656.3,291.7v0.1h4.6v-0.2c0-1.5-0.9-2.4-2.2-2.4
		C657.3,289.2,656.3,290.3,656.3,291.7z"/>
	<path d="M664.4,289.3v-0.2c0-0.5,0.3-0.9,1-0.9s1,0.4,1,0.9v0.2c0,0.5-0.3,0.9-1,0.9S664.4,289.9,664.4,289.3z M664.4,295.8v-0.2
		c0-0.5,0.3-0.9,1-0.9s1,0.4,1,0.9v0.2c0,0.5-0.3,0.9-1,0.9S664.4,296.4,664.4,295.8z"/>
	<path d="M675.6,289.8l-1.3-2.5h0v9.3h-1.3v-11.2h1.6l4.1,6.8l1.3,2.5h0v-9.3h1.3v11.2h-1.6L675.6,289.8z"/>
	<path d="M689.2,295.2L689.2,295.2c-0.4,0.8-1,1.5-2.4,1.5c-1.7,0-2.8-1.2-2.8-3.2v-5.3h1.3v5.1c0,1.5,0.7,2.2,1.9,2.2
		c1,0,2-0.5,2-1.6v-5.7h1.3v8.3h-1.3V295.2z"/>
	<path d="M693.2,296.6v-8.3h1.3v1.3h0.1c0.4-0.8,0.9-1.5,2.2-1.5c1.1,0,2.1,0.5,2.5,1.7h0c0.3-0.9,1.1-1.7,2.5-1.7
		c1.7,0,2.7,1.2,2.7,3.2v5.3h-1.3v-5.1c0-1.5-0.6-2.2-1.8-2.2c-1,0-1.9,0.5-1.9,1.6v5.7h-1.3v-5.1c0-1.5-0.6-2.2-1.8-2.2
		c-1,0-2,0.5-2,1.6v5.7H693.2z"/>
	<path d="M707.2,284.7h1.3v4.9h0.1c0.4-1,1.3-1.5,2.4-1.5c2.1,0,3.4,1.7,3.4,4.3c0,2.6-1.3,4.3-3.4,4.3c-1.1,0-1.9-0.5-2.4-1.5h-0.1
		v1.3h-1.3V284.7z M712.9,293.2v-1.4c0-1.5-0.9-2.5-2.3-2.5c-1.2,0-2.1,0.7-2.1,1.6v3.1c0,1.1,1,1.7,2.1,1.7
		C712,295.6,712.9,294.6,712.9,293.2z"/>
	<path d="M715.9,292.4c0-2.6,1.5-4.3,3.7-4.3c2.2,0,3.6,1.7,3.6,4v0.6h-5.9v0.4c0,1.4,0.9,2.5,2.4,2.5c1,0,1.8-0.5,2.3-1.4l0.9,0.7
		c-0.5,1.1-1.7,1.9-3.3,1.9C717.3,296.8,715.9,295.1,715.9,292.4z M717.2,291.7v0.1h4.6v-0.2c0-1.5-0.9-2.4-2.2-2.4
		C718.2,289.2,717.2,290.3,717.2,291.7z"/>
	<path d="M725.2,296.6v-8.3h1.3v1.5h0.1c0.3-0.8,1-1.5,2.4-1.5h0.5v1.3h-0.8c-1.4,0-2.2,0.6-2.2,1.4v5.6H725.2z"/>
	<path d="M574.4,303.9h1.3v4.9h0.1c0.4-0.9,1.1-1.5,2.3-1.5c1.7,0,2.8,1.2,2.8,3.2v5.3h-1.3v-5.1c0-1.5-0.6-2.2-1.9-2.2
		c-1,0-2,0.5-2,1.6v5.7h-1.3V303.9z"/>
	<path d="M588.5,314.4L588.5,314.4c-0.4,0.8-1,1.5-2.4,1.5c-1.7,0-2.8-1.2-2.8-3.2v-5.3h1.3v5.1c0,1.5,0.7,2.2,1.9,2.2
		c1,0,2-0.5,2-1.6v-5.7h1.3v8.3h-1.3V314.4z"/>
	<path d="M592.5,315.8v-8.3h1.3v1.3h0.1c0.4-0.8,0.9-1.5,2.2-1.5c1.1,0,2.1,0.5,2.5,1.7h0c0.3-0.9,1.1-1.7,2.5-1.7
		c1.7,0,2.7,1.2,2.7,3.2v5.3h-1.3v-5.1c0-1.5-0.6-2.2-1.8-2.2c-1,0-1.9,0.5-1.9,1.6v5.7h-1.3v-5.1c0-1.5-0.6-2.2-1.8-2.2
		c-1,0-2,0.5-2,1.6v5.7H592.5z"/>
	<path d="M606.4,304.9v-0.2c0-0.4,0.2-0.7,0.8-0.7s0.8,0.3,0.8,0.7v0.2c0,0.4-0.2,0.7-0.8,0.7S606.4,305.3,606.4,304.9z
		 M606.5,307.5h1.3v8.3h-1.3V307.5z"/>
	<path d="M615.8,314.4L615.8,314.4c-0.6,1-1.3,1.5-2.5,1.5c-2.1,0-3.4-1.7-3.4-4.3c0-2.6,1.3-4.3,3.4-4.3c1.1,0,2,0.5,2.4,1.5h0.1
		v-4.9h1.3v11.8h-1.3V314.4z M615.8,313.1v-3.1c0-0.9-1-1.6-2.1-1.6c-1.4,0-2.3,1-2.3,2.5v1.4c0,1.5,0.9,2.5,2.3,2.5
		C614.8,314.8,615.8,314.2,615.8,313.1z"/>
	<path d="M619.6,304.9v-0.2c0-0.4,0.2-0.7,0.8-0.7s0.8,0.3,0.8,0.7v0.2c0,0.4-0.2,0.7-0.8,0.7S619.6,305.3,619.6,304.9z
		 M619.8,307.5h1.3v8.3h-1.3V307.5z"/>
	<path d="M625.6,315.8c-0.9,0-1.4-0.6-1.4-1.4v-5.8h-1.4v-1.1h0.8c0.5,0,0.7-0.2,0.7-0.8v-1.5h1.2v2.3h1.8v1.1h-1.8v6h1.7v1.1H625.6
		z"/>
	<path d="M634.5,307.5h1.3l-3.7,10.2c-0.4,1-0.7,1.3-1.9,1.3h-0.7v-1.1h1.3l0.6-1.8l-3.1-8.6h1.3l2,5.6l0.4,1.3h0.1l0.4-1.3
		L634.5,307.5z"/>
	<path d="M637.4,308.5v-0.2c0-0.5,0.3-0.9,1-0.9s1,0.4,1,0.9v0.2c0,0.5-0.3,0.9-1,0.9S637.4,309.1,637.4,308.5z M637.4,315v-0.2
		c0-0.5,0.3-0.9,1-0.9s1,0.4,1,0.9v0.2c0,0.5-0.3,0.9-1,0.9S637.4,315.6,637.4,315z"/>
	<path d="M648.7,309l-1.3-2.5h0v9.3H646v-11.2h1.6l4.1,6.8l1.3,2.5h0v-9.3h1.3v11.2h-1.6L648.7,309z"/>
	<path d="M662.2,314.4L662.2,314.4c-0.4,0.8-1,1.5-2.4,1.5c-1.7,0-2.8-1.2-2.8-3.2v-5.3h1.3v5.1c0,1.5,0.7,2.2,1.9,2.2
		c1,0,2-0.5,2-1.6v-5.7h1.3v8.3h-1.3V314.4z"/>
	<path d="M666.2,315.8v-8.3h1.3v1.3h0.1c0.4-0.8,0.9-1.5,2.2-1.5c1.1,0,2.1,0.5,2.5,1.7h0c0.3-0.9,1.1-1.7,2.5-1.7
		c1.7,0,2.7,1.2,2.7,3.2v5.3h-1.3v-5.1c0-1.5-0.6-2.2-1.8-2.2c-1,0-1.9,0.5-1.9,1.6v5.7h-1.3v-5.1c0-1.5-0.6-2.2-1.8-2.2
		c-1,0-2,0.5-2,1.6v5.7H666.2z"/>
	<path d="M680.2,303.9h1.3v4.9h0.1c0.4-1,1.3-1.5,2.4-1.5c2.1,0,3.4,1.7,3.4,4.3c0,2.6-1.3,4.3-3.4,4.3c-1.1,0-1.9-0.5-2.4-1.5h-0.1
		v1.3h-1.3V303.9z M686,312.4v-1.4c0-1.5-0.9-2.5-2.3-2.5c-1.2,0-2.1,0.7-2.1,1.6v3.1c0,1.1,1,1.7,2.1,1.7
		C685.1,314.8,686,313.8,686,312.4z"/>
	<path d="M688.9,311.6c0-2.6,1.5-4.3,3.7-4.3c2.2,0,3.6,1.7,3.6,4v0.6h-5.9v0.4c0,1.4,0.9,2.5,2.4,2.5c1,0,1.8-0.5,2.3-1.4l0.9,0.7
		c-0.5,1.1-1.7,1.9-3.3,1.9C690.4,316,688.9,314.3,688.9,311.6z M690.2,310.9v0.1h4.6v-0.2c0-1.5-0.9-2.4-2.2-2.4
		C691.2,308.4,690.2,309.5,690.2,310.9z"/>
	<path d="M698.3,315.8v-8.3h1.3v1.5h0.1c0.3-0.8,1-1.5,2.4-1.5h0.5v1.3h-0.8c-1.4,0-2.2,0.6-2.2,1.4v5.6H698.3z"/>
</g>
<g>
	<rect x="693" y="210" fill="#0D1111" width="133" height="1.1"/>
</g>
</svg>
